<?xml version="1.0" encoding="UTF-8"?>
<svg id="Camada_2" data-name="Camada 2" xmlns="http://www.w3.org/2000/svg" xmlns:xlink="http://www.w3.org/1999/xlink" viewBox="0 0 87 87">
  <defs>
    <style>
      .cls-1 {
        fill: #fff;
        stroke: url(#Gradiente_sem_nome_6);
        stroke-miterlimit: 10;
        stroke-width: 2px;
      }

      .cls-2 {
        fill: url(#Gradiente_sem_nome_6-2);
        stroke-width: 0px;
      }
    </style>
    <linearGradient id="Gradiente_sem_nome_6" data-name="Gradiente sem nome 6" x1="0" y1="43.5" x2="87" y2="43.5" gradientUnits="userSpaceOnUse">
      <stop offset="0" stop-color="#0e4989"/>
      <stop offset=".17" stop-color="#124c8b"/>
      <stop offset=".35" stop-color="#1e5591"/>
      <stop offset=".52" stop-color="#32649c"/>
      <stop offset=".7" stop-color="#4e79aa"/>
      <stop offset=".87" stop-color="#7294bd"/>
      <stop offset="1" stop-color="#92acce"/>
    </linearGradient>
    <linearGradient id="Gradiente_sem_nome_6-2" data-name="Gradiente sem nome 6" x1="50.06" y1="43.49" x2="37.88" y2="43.93" xlink:href="#Gradiente_sem_nome_6"/>
  </defs>
  <g id="Camada_1-2" data-name="Camada 1">
    <g>
      <circle id="Elipse_21" data-name="Elipse 21" class="cls-1" cx="43.5" cy="43.5" r="42.5"/>
      <path id="Caminho_27" data-name="Caminho 27" class="cls-2" d="M43.69,19.04h0c3.2,0,5.76,2.64,5.68,5.83l-1.75,29.39c-.05.9-.79,1.59-1.69,1.59h-4.47c-.9,0-1.64-.7-1.69-1.59l-1.75-29.39c-.09-3.2,2.48-5.83,5.68-5.83ZM48.6,63.4c0,2.76-2.24,5-5,5s-5-2.24-5-5,2.24-5,5-5,5,2.24,5,5Z"/>
    </g>
  </g>
</svg>