<?xml version="1.0" encoding="UTF-8"?>
<svg xmlns="http://www.w3.org/2000/svg" xmlns:xlink="http://www.w3.org/1999/xlink" viewBox="0 0 220.18 213.25">
  <defs>
    <style>
      .cls-1 {
        fill: #126687;
      }

      .cls-1, .cls-2, .cls-3, .cls-4, .cls-5, .cls-6, .cls-7, .cls-8, .cls-9, .cls-10, .cls-11, .cls-12, .cls-13, .cls-14, .cls-15, .cls-16, .cls-17, .cls-18, .cls-19, .cls-20, .cls-21, .cls-22, .cls-23, .cls-24, .cls-25, .cls-26, .cls-27, .cls-28, .cls-29, .cls-30, .cls-31, .cls-32, .cls-33, .cls-34, .cls-35, .cls-36, .cls-37, .cls-38, .cls-39, .cls-40, .cls-41, .cls-42, .cls-43, .cls-44, .cls-45, .cls-46 {
        stroke-width: 0px;
      }

      .cls-2 {
        fill: #aed7e5;
      }

      .cls-3 {
        fill: #35373b;
      }

      .cls-4 {
        fill: #825137;
      }

      .cls-5 {
        fill: #26404f;
      }

      .cls-6 {
        fill: #e2a36a;
      }

      .cls-7 {
        fill: #282a2e;
      }

      .cls-8 {
        fill: #2b292d;
      }

      .cls-47 {
        clip-path: url(#clippath);
      }

      .cls-9 {
        fill: #9b2756;
      }

      .cls-10 {
        fill: none;
      }

      .cls-11 {
        fill: #f9e8ca;
      }

      .cls-12 {
        fill: #e5b077;
      }

      .cls-13 {
        fill: #0b566d;
      }

      .cls-14 {
        fill: #ffe5cc;
      }

      .cls-15 {
        fill: #b7e0f2;
      }

      .cls-16 {
        fill: #666;
      }

      .cls-17 {
        fill: #8aa9bf;
      }

      .cls-18 {
        fill: #7c7c7c;
      }

      .cls-19 {
        fill: #e7b177;
      }

      .cls-20 {
        fill: url(#_ÂÁ_Ï_ÌÌ_È_ËÂÌÚ_2);
        opacity: .5;
      }

      .cls-20, .cls-23, .cls-48 {
        mix-blend-mode: multiply;
      }

      .cls-21 {
        fill: #e3e3e3;
      }

      .cls-49 {
        clip-path: url(#clippath-2);
      }

      .cls-22 {
        fill: #2a2a2a;
      }

      .cls-23 {
        fill: #1a1a1a;
        opacity: .43;
      }

      .cls-24 {
        fill: #212e47;
      }

      .cls-25 {
        fill: #b73061;
      }

      .cls-26 {
        fill: #424242;
      }

      .cls-27, .cls-46 {
        fill: #778fa8;
      }

      .cls-28 {
        fill: #8c9daf;
      }

      .cls-29 {
        fill: #9b6335;
      }

      .cls-30 {
        fill: #231922;
      }

      .cls-31 {
        fill: #a2cad7;
      }

      .cls-32 {
        fill: #6b6b6b;
      }

      .cls-33 {
        fill: #809eb4;
      }

      .cls-34 {
        fill: #353c3f;
      }

      .cls-35 {
        fill: #aab3bf;
      }

      .cls-36 {
        fill: #fff;
        opacity: .44;
      }

      .cls-37 {
        fill: #d6b799;
      }

      .cls-38 {
        fill: #daf57c;
      }

      .cls-50 {
        isolation: isolate;
      }

      .cls-39 {
        fill: #d18c4d;
      }

      .cls-40, .cls-42 {
        fill: #282a2e;
      }

      .cls-41 {
        fill: url(#Gradiente_sem_nome_19);
      }

      .cls-48, .cls-42 {
        opacity: .2;
      }

      .cls-43 {
        fill: #636363;
      }

      .cls-44 {
        fill: #15192a;
      }

      .cls-45 {
        fill: #1d1e21;
      }

      .cls-46 {
        mix-blend-mode: screen;
        opacity: .26;
      }
    </style>
    <clipPath id="clippath">
      <path class="cls-10" d="M29.02,0h191.16v213.25H0V29.02C0,13,13,0,29.02,0Z" transform="translate(220.18 213.25) rotate(180)"/>
    </clipPath>
    <clipPath id="clippath-2">
      <path class="cls-10" d="M148.61,42.49c4.76.05,9.53.11,14.29.17,7.33.1,13.72,4.6,15.71,11.05.09.29.18.58.27.87,1.04,3.38,3.33,6.33,6.46,8.35,3.02,1.95,6.03,3.9,9.04,5.85,6.79,4.41,10.85,11.54,10.96,19.16h0c.08,4.95-1.51,9.79-4.53,13.86-5.9,7.95-11.76,15.92-17.58,23.91-7.47,10.25-7.52,23.71-.34,34.12h0c4.44,6.43,6.15,14.19,4.84,21.76-3.44,19.94-6.83,39.89-10.16,59.84-34.44-.68-68.89-.81-103.33-.38,3.96-22.64,8.01-45.28,12.15-67.9,1.05-5.74,3.81-11.08,7.96-15.39,1.49-1.54,2.98-3.09,4.48-4.63,7.04-7.27,10.02-17.26,7.93-26.92-2.21-8-4.43-16-6.67-23.99-3.61-9.49-2.33-17.37-2.33-17.37,2.85-10.87,13.58-19.45,24.72-23.98.44-.18.88-.36,1.32-.54,3.1-1.26,5.71-3.36,7.47-6.02,1.01-1.52,2.02-3.04,3.03-4.56,3.02-4.55,8.46-7.31,14.3-7.25Z"/>
    </clipPath>
    <linearGradient id="Gradiente_sem_nome_19" data-name="Gradiente sem nome 19" x1="847.41" y1="205.63" x2="930.61" y2="205.63" gradientTransform="translate(982.03) rotate(-180) scale(1 -1)" gradientUnits="userSpaceOnUse">
      <stop offset="0" stop-color="#126687"/>
      <stop offset=".52" stop-color="#0d5c76"/>
      <stop offset="1" stop-color="#0b566d"/>
    </linearGradient>
    <linearGradient id="_ÂÁ_Ï_ÌÌ_È_ËÂÌÚ_2" data-name="¡ÂÁ˚ÏˇÌÌ˚È „‡‰ËÂÌÚ 2" x1="1009.02" y1="-320.97" x2="991.92" y2="-321.29" gradientTransform="translate(1126.08 239.33) rotate(170.96) scale(1 -1)" gradientUnits="userSpaceOnUse">
      <stop offset="0" stop-color="#9b6335"/>
      <stop offset=".3" stop-color="#986034"/>
      <stop offset=".48" stop-color="#905931"/>
      <stop offset=".62" stop-color="#824d2c"/>
      <stop offset=".75" stop-color="#6e3b25"/>
      <stop offset=".86" stop-color="#54251c"/>
      <stop offset=".97" stop-color="#340a11"/>
      <stop offset="1" stop-color="#29000d"/>
    </linearGradient>
  </defs>
  <g class="cls-50">
    <g id="Camada_2" data-name="Camada 2">
      <g id="Camada_1-2" data-name="Camada 1">
        <g class="cls-47">
          <g id="character_sit" data-name="character sit">
            <g>
              <g>
                <path class="cls-32" d="M105.8,184.56c-2.18-1.62-4.36-3.24-6.54-4.86,0-.05,0-.1,0-.15,0,0-.39-.26-1.12-.67,0,0,0,0-.01,0h0c-5.76-3.27-35.51-17.13-87.49,6.31.08,2.45.15,4.89.23,7.34,2.19.77,4.39,1.54,6.58,2.32-.02-.84-.05-1.68-.07-2.51,27.31-.8,54.62-1.27,81.94-1.39,2.16-2.13,4.32-4.25,6.49-6.37Z"/>
                <path class="cls-30" d="M61.54,236.76c2.21-16.74,4.46-33.49,6.75-50.22-4.78.07-9.55.14-14.33.23.3,16.7.61,33.41.91,50.11,2.22-.04,4.44-.08,6.66-.11Z"/>
                <path class="cls-30" d="M105.8,182.04c.16.09-29.98-20.79-88.56,5.45.07,2.45.14,4.89.22,7.34,29.45-.87,58.91-1.34,88.38-1.41,0-3.79-.02-7.59-.03-11.38Z"/>
              </g>
              <g>
                <path class="cls-16" d="M163.64,42.68c4.76.07,9.53.15,14.29.24,7.33.14,13.7,4.67,15.66,11.12.09.29.18.58.27.87,1.03,3.38,3.3,6.34,6.43,8.37,3.01,1.96,6.01,3.92,9.01,5.89,6.77,4.44,10.8,11.59,10.88,19.21h0c.06,4.95-1.56,9.79-4.59,13.84-5.94,7.93-11.83,15.87-17.68,23.83-7.51,10.22-7.63,23.68-.49,34.11h0c4.41,6.45,6.09,14.22,4.75,21.78-3.53,19.93-7,39.86-10.42,59.8-34.44-.83-68.89-1.11-103.33-.84,4.06-22.62,8.21-45.24,12.45-67.85,1.08-5.74,3.85-11.07,8.03-15.36,1.5-1.54,2.99-3.07,4.5-4.61,7.07-7.24,10.1-17.22,8.05-26.88-2.17-8.01-4.36-16.02-6.57-24.02-3.57-9.51-2.26-17.38-2.25-17.38,2.9-10.86,13.66-19.39,24.83-23.87.44-.18.88-.35,1.32-.53,3.11-1.25,5.72-3.33,7.49-5.99,1.01-1.52,2.03-3.03,3.05-4.55,3.04-4.54,8.49-7.28,14.33-7.19Z"/>
                <path class="cls-16" d="M148.61,42.49c4.76.05,9.53.11,14.29.17,7.33.1,13.72,4.6,15.71,11.05.09.29.18.58.27.87,1.04,3.38,3.33,6.33,6.46,8.35,3.02,1.95,6.03,3.9,9.04,5.85,6.79,4.41,10.85,11.54,10.96,19.16h0c.08,4.95-1.51,9.79-4.53,13.86-5.9,7.95-11.76,15.92-17.58,23.91-7.47,10.25-7.52,23.71-.34,34.12h0c4.44,6.43,6.15,14.19,4.84,21.76-3.44,19.94-6.83,39.89-10.16,59.84-34.44-.68-68.89-.81-103.33-.38,3.96-22.64,8.01-45.28,12.15-67.9,1.05-5.74,3.81-11.08,7.96-15.39,1.49-1.54,2.98-3.09,4.48-4.63,7.04-7.27,10.02-17.26,7.93-26.92-2.21-8-4.43-16-6.67-23.99-3.61-9.49-2.33-17.37-2.33-17.37,2.85-10.87,13.58-19.45,24.72-23.98.44-.18.88-.36,1.32-.54,3.1-1.26,5.71-3.36,7.47-6.02,1.01-1.52,2.02-3.04,3.03-4.56,3.02-4.55,8.46-7.31,14.3-7.25Z"/>
                <g class="cls-49">
                  <path class="cls-30" d="M152.53,232.91c-14.27.5-28.54,1.09-42.79,1.78,1.55-76.25,14.52-152.54,40.52-225.07,14.16,5.18,28.26,10.45,42.29,15.8-37.32,63.89-47.17,137.82-40.02,207.48Z"/>
                </g>
                <path class="cls-23" d="M209.3,69.17c-3-1.97-6-3.93-9.01-5.89-3.12-2.03-5.4-4.99-6.43-8.37-.09-.29-.18-.58-.27-.87-1.96-6.45-8.33-10.98-15.67-11.12-4.31-.08-8.62-.15-12.93-.22,1.29-.27,25.07,11.1,24.95,53.94-.09,22.97-28.26,28.31-19.59,55.36.14.43.28.86.44,1.31,5.51,15.46,6.04,32.12.89,47.64-2.58,7.76-5.44,14.9-8.59,21.12,1.04-.24,2.19-.18,3.37.33,9.77,4.28,20.07,8.41,29.14,14.14.29-1.56.59-3.12.88-4.68.32-1.71-.78-3.3-2.41-3.76,2.66-15.4,5.35-30.79,8.08-46.18.16-.9.27-1.79.34-2.69.03-.33.03-.67.04-1,.03-.56.05-1.12.05-1.67,0-.42-.03-.85-.06-1.27-.02-.46-.05-.91-.09-1.36-.05-.48-.12-.95-.19-1.43-.06-.39-.12-.77-.19-1.15-.1-.52-.22-1.04-.34-1.55-.08-.32-.17-.64-.26-.96-.16-.56-.33-1.11-.52-1.66-.09-.25-.19-.51-.28-.76-.23-.59-.46-1.19-.73-1.77-.08-.17-.17-.33-.25-.5-.66-1.37-1.39-2.71-2.27-3.99-7.14-10.44-7.03-23.9.48-34.12,1.94-2.64,3.88-5.27,5.83-7.9,3.9-5.27,7.82-10.53,11.75-15.79,1.37-1.83,2.53-3.8,3.3-5.92,3.79-10.37-.35-21.29-9.48-27.28Z"/>
              </g>
              <g>
                <path class="cls-30" d="M167.69,64.33c1.7-.16,3.01-.07,4.38.19,1.35.26,2.61.69,3.81,1.23,2.42,1.07,4.45,2.73,6.22,4.59,1.78,1.85,3.25,4,4.24,6.33,1.05,2.29,1.5,4.86,1.31,7.38-.11,1.4-1.42,2.45-2.93,2.35-.53-.04-1.01-.21-1.41-.47-.1-.06-.19-.13-.29-.19-2.01-1.35-3.53-2.62-5.14-3.78-1.55-1.18-3.05-2.29-4.56-3.38-1.5-1.1-3.01-2.15-4.39-3.47-.7-.64-1.38-1.35-2.04-2.13-.63-.78-1.37-1.65-1.78-2.64-.18-.43-.36-.86-.54-1.29-.76-1.79.21-3.8,2.15-4.49.31-.11.65-.18.97-.21Z"/>
                <path class="cls-30" d="M138.41,70.03c-.44.98-1.2,1.84-1.84,2.6-.68.76-1.37,1.45-2.08,2.08-1.41,1.29-2.94,2.3-4.47,3.37-1.54,1.06-3.05,2.14-4.63,3.28-1.64,1.12-3.19,2.36-5.23,3.66-.09.06-.19.12-.28.18-1.25.8-2.96.51-3.82-.64-.3-.4-.46-.87-.49-1.32-.13-2.52.38-5.08,1.48-7.35,1.05-2.31,2.56-4.42,4.38-6.23,1.81-1.82,3.88-3.43,6.32-4.45,1.21-.51,2.49-.92,3.84-1.14,1.38-.23,2.69-.3,4.38-.1,2.07.25,3.54,1.99,3.27,3.89-.04.3-.13.59-.25.87-.19.43-.39.86-.58,1.29Z"/>
              </g>
              <path class="cls-32" d="M26.26,228.2c0,.17,1.26-14.59,70.93-15.25,69.7-.17,93.98,15.14,93.95,14.99-27.53,1.55-55.01,3.46-82.43,5.71-.03-.23-71.6,3.87-82.45-5.45Z"/>
            </g>
            <g>
              <g>
                <g id="right_leg" data-name="right leg">
                  <path id="shin_right" data-name="shin right" class="cls-13" d="M84.01,310.18l4.92-1.74s-1.51-57.97-5.33-70.26c-1.91-6.13-12.36-24.19-18.02-31.58-5.67-7.41-21.97-3.25-17.95,9.5,6.43,17.7,18.52,46.23,36.37,94.08Z"/>
                  <g id="hip_right" data-name="hip right">
                    <path class="cls-41" d="M96.19,185.52s-41.95,16.39-44.53,19.04,16.83,22.52,16.83,22.52l53.72-.38,12.42-35.71s-30.95-10.48-38.43-5.48Z"/>
                  </g>
                </g>
                <g id="left_leg" data-name="left leg">
                  <path id="shin_left" data-name="shin left" class="cls-1" d="M121.72,209.98s3.6,28.37,3.05,39.23c-.55,10.86-20.76,59.96-20.76,59.96l-5.73-.56c2.41-83.37.78-103.21.78-103.21.72-7.07,21-8.51,22.66,4.58Z"/>
                  <g id="hip_left" data-name="hip left">
                    <path class="cls-1" d="M159.34,179.32s5.62,23.82,4.92,31.07c-.47,4.88-5.92,12.53-8.12,15.19-2.19,2.66-49.64,5.63-53.2,1.64-3.56-3.99-4.46-19.95-3.67-22.7,1.66-5.84,46.15-18.54,46.15-18.54l13.91-6.66Z"/>
                  </g>
                </g>
              </g>
              <g id="hands_with_tablet" data-name="hands with tablet">
                <g id="shoulder_right" data-name="shoulder right">
                  <path class="cls-35" d="M66.85,104.72c13.67,1.27,18.06,82.99-3.26,83.89-38.81,1.64-4.75-84.64,3.26-83.89Z"/>
                  <path class="cls-28" d="M57.98,178.5c16.62-.7,17.62-50.53,10.77-73.06,12.13,8.18,15.14,82.32-5.16,83.18-10.11.43-15.28-5.11-17.24-13.53,2.8,2.36,6.6,3.63,11.63,3.41Z"/>
                  <path class="cls-21" d="M42.03,179.31c-.15,7.69,7.68,14.07,17.49,14.26,9.81.19,17.88-5.89,18.02-13.58.15-7.69-7.68-14.07-17.49-14.26-9.81-.19-17.88,5.89-18.02,13.58Z"/>
                </g>
                <g id="forearm_right" data-name="forearm right">
                  <path class="cls-39" d="M46.45,179.79c-.11,5.82,5.01,10.63,11.43,10.76,6.43.12,11.72-4.49,11.84-10.31.11-5.82-5.01-10.63-11.43-10.76-6.43-.12-11.72,4.49-11.84,10.31Z"/>
                  <path class="cls-19" d="M47.6,178.36c-.09,4.7,4.5,8.59,10.25,8.7,5.75.11,10.48-3.61,10.57-8.3s-4.5-8.59-10.25-8.7c-5.75-.11-10.48,3.61-10.57,8.3Z"/>
                </g>
                <g id="body_sit_hunched">
                  <path class="cls-35" d="M151.96,94.57c-5.98-5.53-48.52-8.78-48.52-8.78,0,0-33.84,13.33-36.42,19.32-3.78,8.79,26.57,59.42,27.02,62.57,1.32,9.24-8.11,12.86-7.83,15.06.14,1.08,10.13,10.52,38.77,8.94,19.29-1.07,36.44-7.22,36.09-9.95-.22-1.74,2.75-76.17-9.11-87.15Z"/>
                  <path class="cls-39" d="M85.44,93.33s-8.3,17.44,8.16,17.44c30.36,0,25.86-21.84,25.86-21.84l-7.14-14.18-27.63,4.8.75,13.78Z"/>
                  <path class="cls-28" d="M137.18,159.96c10.86-8.9,14.91-58.44,7.57-68.38-1.95-.49,6.02,1.91,7.2,3,11.86,10.98,8.89,85.41,9.11,87.15.35,2.74-16.8,8.89-36.09,9.95-28.65,1.58-38.63-7.85-38.77-8.94-.28-2.19,9.15-5.82,7.83-15.06,18.46,5.21,32.28,1.18,43.14-7.72Z"/>
                  <path class="cls-21" d="M85.44,93.33s-8.3,17.44,8.16,17.44c30.36,0,25.86-21.84,25.86-21.84,0,0-3.25,19.41-24.25,19.61-13.42.13-9.78-15.22-9.78-15.22Z"/>
                </g>
                <g id="shoulder_left" data-name="shoulder left">
                  <path class="cls-28" d="M151.39,93.46c12.85-4.84,62.59,61.35,44.69,73.73-31.95,22.1-57.54-68.89-44.69-73.73Z"/>
                  <path class="cls-21" d="M163.25,161.42c2.28,9.03,12.91,14.13,23.75,11.39,10.84-2.74,17.77-12.27,15.5-21.3-2.28-9.03-12.91-14.13-23.75-11.39-10.84,2.74-17.77,12.27-15.5,21.3Z"/>
                </g>
                <g id="forearm_left" data-name="forearm left">
                  <path class="cls-12" d="M195.64,152.48c-2.2-7.16-12.94-12.73-28.63-8.11-18.83,5.54-44.14,19.8-44.14,19.8l1.43,3.15s36.28,6.83,53.28,3.53c11.41-2.21,20.78-9.55,18.06-18.37Z"/>
                  <path class="cls-39" d="M173.15,169.85c10.8-1.97,19.62-8.71,16.99-16.9-1.91-5.93-10.23-10.73-22.54-8.74,15.37-4.31,25.87,1.2,28.04,8.27,2.72,8.82-6.65,16.16-18.06,18.37-17,3.3-53.28-3.53-53.28-3.53l-.25-.56c6.34,1.14,34.84,5.69,49.1,3.09Z"/>
                </g>
                <g id="tablet_with_wrists" data-name="tablet with wrists">
                  <g>
                    <path class="cls-33" d="M70.88,195.82l51.11-10.94c1.33-.29,2.03-1.76,1.4-2.97l-16.65-32.33c-.43-.83-1.36-1.27-2.27-1.07l-51.11,10.94c-1.33.29-2.03,1.76-1.4,2.97l16.65,32.33c.43.83,1.36,1.27,2.27,1.07Z"/>
                    <path class="cls-17" d="M51.96,162.42c-.62-1.21.07-2.68,1.4-2.97l51.11-10.94c.41-.09.82-.03,1.18.11l-4.79,6.54-47.44,10.11-1.47-2.85Z"/>
                    <path class="cls-31" d="M70.84,195.78l49.24-10.49c1.33-.28,2.03-1.76,1.41-2.97l-16.03-31.14c-.43-.83-1.36-1.27-2.27-1.08l-49.24,10.49c-1.33.28-2.03,1.76-1.41,2.97l16.03,31.14c.43.83,1.36,1.27,2.27,1.08Z"/>
                    <path class="cls-33" d="M81.79,173.61c1.11,1.88,3.81,3.02,6.05,2.54s3.15-2.39,2.05-4.26c-1.11-1.88-3.81-3.02-6.05-2.54s-3.15,2.39-2.05,4.26Z"/>
                    <path class="cls-2" d="M106.77,154.03l-53.05,11.3c-.08.02-.16.05-.24.08l-.95-1.85c-.62-1.21.07-2.68,1.41-2.97l49.24-10.49c.91-.19,1.84.25,2.27,1.08l1.46,2.84s-.1,0-.14,0Z"/>
                    <path class="cls-17" d="M89.35,174.88c-.98-3.21-3.25-4.7-6.84-4.43.38-.38.9-.67,1.57-.81,2.02-.43,4.46.6,5.45,2.29.64,1.09.52,2.19-.19,2.95Z"/>
                    <path class="cls-33" d="M54.87,162.94c.37.62,1.27,1,2.01.84s1.05-.79.68-1.42c-.37-.62-1.27-1-2.01-.84s-1.05.79-.68,1.42Z"/>
                    <path class="cls-33" d="M59.3,162c.25.42.85.67,1.34.56s.7-.53.45-.95c-.25-.42-.85-.67-1.34-.56s-.7.53-.45.95Z"/>
                    <g class="cls-48">
                      <path class="cls-31" d="M52.42,161.99c.22-.67.76-1.24,1.53-1.4l49.24-10.49c.91-.19,1.84.25,2.27,1.08l16.03,31.14c.35.69.27,1.45-.1,2.05l-68.97-22.37Z"/>
                    </g>
                    <path class="cls-15" d="M121.29,182.73l-16.03-31.14c-.43-.83-1.36-1.27-2.27-1.08l-49.24,10.49c-.59.13-1.04.49-1.33.96.22-.66.76-1.21,1.52-1.37l49.24-10.49c.91-.19,1.84.25,2.27,1.08l16.03,31.14c.35.68.27,1.43-.08,2.01.17-.5.16-1.07-.11-1.6Z"/>
                  </g>
                  <g>
                    <path class="cls-12" d="M124.5,164.15s-8.47-.13-13.47.6c0,0-3.17.2-5.46,1.3-1.26.6-3.54,2.52-3.11,3.28.42.76,1.85-.63,3.95-1.56,1.19-.53,4.02-.82,4.13-.63.11.19-2.41.81-3.47,1.52-.89.59-3.75,3.59-3.17,4.19.77.8,1.74-.68,4.19-2.57.87-.57,3.9-1.32,4.04-1.08s-2.17,1.03-2.94,1.86c-.77.83-2.76,3.22-2.05,3.84s2-1.26,3.34-2.43c.73-.63,3.38-1.71,3.48-1.65.1.06-1.04.82-1.57,1.67-.53.86-1.31,3-.71,3.19.6.19,1.01-.81,2.43-2.48.44-.51,2.15-1.63,2.15-1.63,0,0,4.05-.28,8.29-3.97,0,0,1.43-2.9-.02-3.46Z"/>
                    <path class="cls-39" d="M111.59,175.06c.6.19,1.01-.81,2.43-2.48.44-.51,2.43-1.66,2.43-1.66,0,0,3.91-.41,8.15-4.1l-.08.79c-4.24,3.69-8.29,3.97-8.29,3.97,0,0-1.72,1.12-2.15,1.63-1.42,1.66-1.83,2.67-2.43,2.48-.21-.07-.24-.37-.19-.76.03.06.07.11.13.13Z"/>
                  </g>
                  <g>
                    <path class="cls-12" d="M58.08,175.46s-.1-1.36,4.31-.33c0,0,3.41.04,3.48,1.26.07,1.22-7.71.87-7.79-.93Z"/>
                    <path class="cls-12" d="M58.17,178.39s-.04-1.5,4.55-.72c0,0,4.01,0,4.19,1.24.18,1.24-8.54,1.33-8.74-.52Z"/>
                    <path class="cls-12" d="M59.81,180.99s-.66-1.18,3.86-.77c0,0,3.24.1,3.36,1.11.12,1.01-7.02,1.46-7.21-.34Z"/>
                    <path class="cls-12" d="M61.29,183.38s-.5-1.05,2.55-.77c0,0,2.02.14,1.9,1.01-.11.87-4.32.97-4.45-.25Z"/>
                  </g>
                </g>
              </g>
              <g>
                <g id="Head">
                  <path class="cls-7" d="M71.91,39.02c1.78,4.99,5.62,8.18,8.58,7.13,2.96-1.05,3.93-5.96,2.15-10.95-1.78-4.99-5.62-8.18-8.58-7.13-2.96,1.05-3.93,5.96-2.15,10.95Z"/>
                  <path class="cls-7" d="M116.62,17.78s1.14-6.66-4.86-8.59c-4.63-1.49-26.4,1.73-31.19.43-4.8-1.3-4.51-4.57-4.51-4.57,0,0-7.8,7.19-4.88,20.83,2.93,13.64,15.67,15.84,15.67,15.84l27.09-11.88,2.68-12.05Z"/>
                  <path class="cls-7" d="M106.06,51.35c-.42,16.38,1.4,24.19,7.38,24.98,7.43.99,17.49-35.08,14.07-48.89-1.7-6.89-8.72-10.33-13.92-9.75-6.04.68-7.12,17.28-7.53,33.66Z"/>
                  <circle class="cls-39" cx="117.77" cy="64.74" r="6.65" transform="translate(-8.19 111.59) rotate(-49.2)"/>
                  <path class="cls-12" d="M74,45.39c.21,20.17-4.54,28.82-3.3,34.24,2.42,10.57,13.98,19.06,20.28,20.11,5.46.9,24.69-9,26.28-20.16,1.54-10.85,1.14-43.72-11.29-49.66-22.06-10.54-33.27,4.73-31.96,15.48Z"/>
                  <path class="cls-6" d="M110.63,82.75c2.22-6.18,6.63-52.87-18.64-56.37,4.02-.02,8.68,1.01,13.97,3.54,12.43,5.94,12.84,38.81,11.29,49.66-1.59,11.17-21.14,21.3-26.28,20.16-5.14-1.13-6.47-2.67-6.47-2.67,0,0,4.91,2.73,9.83,1.24,9.37-2.85,15.2-12.53,16.29-15.55Z"/>
                  <path class="cls-4" d="M119.68,64.76c-.12-1.41-1.35-2.46-2.76-2.34-.2.02-.38.06-.56.12.45-.39,1.03-.66,1.67-.71,1.61-.13,3.03,1.07,3.16,2.68.13,1.61-1.07,3.03-2.68,3.16-.41.03-.8-.02-1.16-.14,1.41-.12,2.45-1.35,2.34-2.76Z"/>
                  <path class="cls-7" d="M90.29,26.21c22.33-1.69,23.87,20.91,24.57,38.85l2.17-.59c8.63-29.25.33-50.67-26.75-38.26Z"/>
                  <path class="cls-3" d="M110.42,10.15s3.19.89,2.16,4.15c-1.02,3.26-13.23,7.97-21.77,8.06-9.61.1-19.98-6.27-14.76-17.31,0,0-1.14,3.42,4.17,5.28,6.09,2.13,25.11-1.9,30.2-.17Z"/>
                  <path class="cls-3" d="M125.77,25.87s-2.77-6.93-8.36-5.81c-5.58,1.13-5.31,7.03-4.04,9.53,1.27,2.5,6.99,14.19,10.16,14.01s4.84-10.15,2.24-17.73Z"/>
                  <path class="cls-45" d="M116.62,17.78s-6.07,5.9-14.33,10.57l1.15.68s9.6-6.09,13.18-11.25Z"/>
                  <g>
                    <path class="cls-45" d="M76.06,5.05c-.12.17-.22.34-.33.52.2-.33.33-.52.33-.52Z"/>
                    <path class="cls-45" d="M84.29,27.94l-.1.04s-16.99-9.19-8.46-22.41c-1.46,2.47-6.64,13.37,9.78,21.89l-.23.09c-.34.12-.67.25-.99.39Z"/>
                  </g>
                  <path class="cls-45" d="M72.69,9.99s-4.5,13.02,8.41,19.76l-.67.51s-12.89-6.27-7.74-20.27Z"/>
                  <polygon class="cls-45" points="113.3 47.49 126.8 47.8 126.64 48.64 113.47 48.47 113.3 47.49"/>
                  <polygon class="cls-45" points="113.78 50.55 126.16 50.99 125.97 51.82 113.96 51.94 113.78 50.55"/>
                </g>
                <path class="cls-42" d="M116.55,59.19c-.75.06-1.53-.06-2.28,0-.22,3.38-1.66,4.75-2.23,8.09-1.1,6.43-7.78,8.36-15.37,6.36-7.26-1.92-11.91-3.02-18.25-1.49-3.34.81-7.09-1.17-6.78-2.06-1.6,3.24-1.39,10.38-.14,12.69,2.74,5.05,6.24,10.41,11.14,13.4,4.9,2.99,7.64,4.16,11.91,3.19,2.86-.65,11.1-4.9,13.46-6.63,3.5-2.57,5.98-5.13,7.85-9.05,1.85-3.87,2.72-9.93,2.02-14.16-.7-4.23.36-6.09-1.35-10.35Z"/>
                <g id="head_smile">
                  <path class="cls-40" d="M108.93,48.47s-5.92-3.11-13.68-6.03l1.17-2.95s7.09,1.68,13.1,7.89l-.59,1.09Z"/>
                  <path class="cls-40" d="M71.92,48.64s2.64-2.04,10.1-5.65l-1.43-2.83s-5.31,1.71-9.53,7.16l.87,1.33Z"/>
                  <path class="cls-39" d="M86.13,48.71c1.5,1.64,2.44,3.62,2.54,5.66.29,6.33-8.07,11.17-7.33,14.11.41,1.59,8.27,2.62,8.36,3.22.1.6-10.14.34-10.54-2.67-.53-3.33,8.69-9.85,8.4-16.41-.06-1.3-.49-2.61-1.43-3.91Z"/>
                  <g>
                    <path class="cls-14" d="M104.12,57.49s-2.26,3.83-6.04,2.95c-2.98-.69-2.98-6.08-2.98-6.08,0,0,4.53-2.19,9.02,3.13Z"/>
                    <path class="cls-40" d="M95.64,58.03c.26,1.61,1.67,2.73,3.15,2.49,1.49-.24,2.48-1.73,2.23-3.35-.26-1.61-1.67-2.73-3.15-2.49-1.49.24-2.48,1.73-2.23,3.35Z"/>
                    <path class="cls-40" d="M104.59,58.02s-3.35-3.23-9.86-3.53l-.46-1.82s6.46-.42,10.69,4.8l-.37.54Z"/>
                  </g>
                  <g>
                    <path class="cls-14" d="M82.95,57.17s-2.11,3.62-5.59,2.73c-3.73-.95-1.94-5.89-1.94-5.89,0,0,3.38-1.76,7.53,3.16Z"/>
                    <path class="cls-40" d="M75.09,57.71c.24,1.49,1.54,2.52,2.92,2.3,1.37-.22,2.3-1.6,2.06-3.09-.24-1.49-1.54-2.52-2.92-2.3-1.37.22-2.3,1.6-2.06,3.09Z"/>
                    <path class="cls-40" d="M83.39,57.67s-3.1-2.99-9.12-3.26l-.42-1.68s5.97-.39,9.88,4.44l-.34.5Z"/>
                  </g>
                  <g>
                    <path class="cls-29" d="M97.93,76.57c-.9-1.08-19.41-1.07-19.93-.04-.51,1.03,2.8,7.24,10.08,7.17,8.51-.09,10.48-6.38,9.85-7.13Z"/>
                    <path class="cls-20" d="M97.93,76.57c-.9-1.08-19.41-1.07-19.93-.04-.51,1.03,2.8,7.24,10.08,7.17,8.51-.09,10.48-6.38,9.85-7.13Z"/>
                    <path class="cls-11" d="M96.95,77.25c-.29-1.06-15.74-.97-16.19-.04,0,0,1.98,6.36,7.96,5.82,6.3-.41,8.52-4.72,8.23-5.78Z"/>
                    <path class="cls-37" d="M94.02,76.64c1.68.13,2.86.33,2.93.61.19.71-.75,2.89-3.29,4.37.24-1.8.33-3.6.36-4.98Z"/>
                    <path class="cls-40" d="M96.19,79.47s-5.2-.16-5.23.03c-.03.19.77.05,4.63.64,0,0,.23-.16.6-.67Z"/>
                  </g>
                </g>
              </g>
            </g>
            <g>
              <path class="cls-32" d="M196.89,184.38c-2.13-1.68-4.27-3.36-6.4-5.04,0-.05,0-.1,0-.15,0,0-.38-.27-1.1-.7,0,0,0,0-.01,0,0,0,0,0,0,0-5.67-3.43-35.04-18.11-87.66,3.88,0,2.45.02,4.9.03,7.34,2.17.83,4.34,1.66,6.51,2.5,0-.84,0-1.68,0-2.52,27.33-.05,54.65.25,81.97.88,2.22-2.07,4.44-4.13,6.67-6.19Z"/>
              <path class="cls-30" d="M151.18,235.33c2.67-16.68,5.39-33.35,8.14-50.02-4.78-.07-9.55-.12-14.33-.17-.16,16.71-.32,33.41-.47,50.12,2.22.02,4.44.04,6.67.07Z"/>
              <path class="cls-30" d="M196.95,181.86c.16.09-29.41-21.62-88.71,3,0,2.45,0,4.9.01,7.34,29.47-.05,58.95.3,88.41,1.04.1-3.79.19-7.59.29-11.38Z"/>
            </g>
            <g>
              <path class="cls-26" d="M135.24,68.22c-.64-.21-1.02-.9-1.11-1.57-.08-.67.07-1.35.17-2.01.42-2.85-.18-5.84-1.66-8.31-1.48-2.47-3.83-4.41-6.54-5.39-.27-.1-.57-.2-.74-.43-.12-.15-.17-.35-.21-.54-.14-.66-.21-1.33-.2-2,.74-.12,1.51-.11,2.24.03-.23.6-.44,1.66.31,2.05,1.47.76,4.31,2.5,5.93,3.97,1.6,1.46,2.6,3.5,3.14,5.61.32,1.24,1.43,9.51-1.33,8.6Z"/>
              <path class="cls-26" d="M86.75,20.5c-6.95,2.2-11.08,4.07-13.75,8.68-1.31,2.26-1.83,6.12-1.85,8.57-.02,2.61,1.99,6.9,2.46,6.32.2-.24.3-.99.29-1.34-.25-6.41,4.72-16.75,8.85-19.17,2.45-1.43,5.55-2.35,8.69-3.12,3.78-.93,7.84-1.68,11.96-1.36-1.49-.11-2.89-.39-4.47-.45-1.04-.04-1.98-.16-2.98-.04-3.27.41-6.25.98-9.21,1.92Z"/>
              <path class="cls-43" d="M120.09,74.79c-1.9-.18-3.79-.78-5.15-2.02-.91-.83-1.53-1.91-2.01-3.03-1.38-3.22-1.59-6.98-.3-10.32,1.29-3.35,4.16-6.22,7.68-7.32,1.17-.37,2.39-.54,3.61-.65,1.87-.16,3.86-.11,5.43.83,1.04.62,1.81,1.58,2.42,2.6,1.53,2.54,2.24,5.61,1.61,8.56-.33,1.55-1.01,3.02-1.78,4.43-.73,1.33-1.54,2.61-2.43,3.84-.96,1.32-2.1,2.49-3.81,2.75-1.75.27-3.54.5-5.29.34Z"/>
              <ellipse class="cls-26" cx="125.83" cy="63.08" rx="11.6" ry="9.87" transform="translate(37.94 173.03) rotate(-77.99)"/>
              <ellipse class="cls-25" cx="125.83" cy="63.08" rx="9.22" ry="7.86" transform="translate(37.94 173.03) rotate(-77.99)"/>
              <path class="cls-9" d="M131.4,56.15c.36,1.45.4,3.05.05,4.67-1.06,4.98-5.36,8.29-9.6,7.39-1.43-.3-2.67-1.05-3.65-2.09.74,3.01,2.85,5.38,5.71,5.98,4.24.9,8.54-2.4,9.6-7.39.7-3.3-.2-6.51-2.12-8.57Z"/>
              <path class="cls-26" d="M112.67,68.37c.71-.15,1.2-.84,1.36-1.55.17-.71.08-1.44.05-2.17-.12-3.09.86-6.21,2.72-8.67,1.86-2.47,4.59-4.26,7.59-5,.3-.07.63-.15.84-.38.14-.15.22-.35.28-.55.23-.68.37-1.4.44-2.11-.78-.22-1.59-.29-2.4-.23.18.66.28,1.82-.57,2.15-1.65.64-4.88,2.17-6.78,3.56-1.88,1.38-3.17,3.44-3.99,5.62-.48,1.29-2.62,9.99.44,9.33Z"/>
              <path class="cls-43" d="M111.46,22.57c3.34,2.1,5.61,4.79,7.07,7.58,1.46,2.79,2.15,5.69,2.66,8.58.41,2.31,1.04,5.24-.44,7.31-.32.44-1.09.4-.94.89.21.71,1.44,1.11,2.52,1.39,1.26.33,2.52.64,3.79.95.73.18,1.58.35,2.23.12.51-.18.74-.57.91-.93,2.25-4.79-1.03-14.86-4.53-20.06-.82-1.21-7.18-10.39-27.79-9.86,2.51.35,5.05.47,7.48,1.07,2.62.66,5.03,1.69,7.04,2.95Z"/>
              <path class="cls-36" d="M121.68,57.23c-.97,1.26-1.64,2.74-1.96,4.3-.07.34-.12.7-.05,1.05.08.34.31.67.64.78.39.12.82-.09,1.07-.41.25-.32.36-.72.44-1.12.21-.95.33-1.93.62-2.86.29-.93.78-1.84,1.56-2.42.63-.47.87-1.46-.17-1.15-.84.25-1.65,1.17-2.15,1.83Z"/>
              <path class="cls-36" d="M126.83,54.75c-.2-.03-.41-.06-.61-.09-.07-.01-.15-.02-.21.02-.65.37-.27.77,0,.97.28.2.66.21.99.11.26-.08.55-.28.52-.55-.04-.3-.4-.41-.69-.45Z"/>
              <path class="cls-18" d="M121.28,47.94c-.95.09-1.99-.45-1.66-1.04,0,0,.63-.63.92-2.67.18-1.26-.63-9.24-3.85-15.33-3.05-5.77-11.09-9.1-17.45-9.41-6.87-.33-17.48,1.76-25.07,8.45-2.64,2.32-2.67,7.69-2.35,11.34.25,2.58,1.69,4.25,1.8,4.78-.17,1.48-6.23-9.61-.98-16.36,3.1-3.99,8.19-6.45,13.69-7.99,5.78-1.62,10.61-1.67,12.97-1.56,3.67.18,7.72,1.25,11.12,2.93,3.88,1.92,6.76,4.5,8.33,7.47,3.21,6.07,4.2,14.18,3.96,15.89-.33,2.35-1.21,3.49-1.42,3.51Z"/>
            </g>
          </g>
          <g>
            <g>
              <path class="cls-22" d="M54.7,103.49l5.1-3.84c2.91-2.19,3.5-6.33,1.31-9.24l-11.2-14.9-15.65,11.77,11.2,14.9c2.19,2.91,6.33,3.5,9.24,1.31Z"/>
              <path class="cls-44" d="M34.26,87.29l11.2,14.9c2.19,2.91,6.33,3.5,9.24,1.31l3.11-2.34c-2.45.13-5.33-.15-7.47-1.62-3.51-2.42-8.55-12.03-10.68-16.31l-5.4,4.06Z"/>
            </g>
            <rect class="cls-8" x="23.38" y="52.07" width="4.35" height="14.71" transform="translate(81.69 91.55) rotate(143.06)"/>
            <path class="cls-5" d="M55.56,81.18l-15.91-20.16c-1.84-2.34-5.73-2.4-8.73-.14l-5.33,4.01c-3,2.25-4.02,5.99-2.31,8.41l14.85,20.99,17.43-13.1Z"/>
            <path class="cls-24" d="M43.5,90.24c-3.34-5.26-14.54-23.84-10.54-30.51-.7.27-1.4.65-2.05,1.14l-5.33,4.01c-3,2.25-4.02,5.99-2.31,8.41l14.85,20.99,5.37-4.04Z"/>
            <polygon class="cls-27" points="23.97 75.46 41.61 62.2 45.02 65.81 26.39 79.82 23.97 75.46"/>
            <path class="cls-44" d="M37.65,88.16s0,0,0,.01c.26.35.75.41,1.1.16l10.05-7.56c.35-.26.41-.75.16-1.1,0,0,0,0-.01-.01l-11.3,8.5Z"/>
            <path class="cls-44" d="M36.52,86.67s0,0,0,.01c.26.35.75.41,1.1.16l10.05-7.56c.35-.26.41-.75.16-1.1,0,0,0,0-.01-.01l-11.3,8.5Z"/>
            <path class="cls-44" d="M35.44,85.22s0,0,0,.01c.26.35.75.41,1.1.16l10.05-7.56c.35-.26.41-.75.16-1.1,0,0,0,0-.01-.01l-11.3,8.5Z"/>
            <path class="cls-46" d="M36.45,69.83c-.41-.55.57-1.98,2.19-3.19,1.62-1.22,3.27-1.76,3.68-1.22s-.57,1.98-2.19,3.19c-1.62,1.22-3.26,1.76-3.68,1.22Z"/>
            <path class="cls-27" d="M17.58,55.86c-.53-.7.58-2.43,2.47-3.86,1.9-1.43,3.86-2.01,4.39-1.31s-.58,2.43-2.47,3.86-3.86,2.01-4.39,1.31Z"/>
            <path class="cls-34" d="M12.14,55.72l22.12-16.64,3.39.2-22.44,16.87-3.07-.43h0Z"/>
            <rect class="cls-38" x="36.1" y="87.68" width="21.8" height=".52" transform="translate(137.42 129.98) rotate(143.06)"/>
          </g>
        </g>
      </g>
    </g>
  </g>
</svg>