<?xml version="1.0" encoding="UTF-8"?>
<svg xmlns="http://www.w3.org/2000/svg" xmlns:xlink="http://www.w3.org/1999/xlink" viewBox="0 0 229.39 222.17">
  <defs>
    <style>
      .cls-1 {
        fill: #3148a8;
      }

      .cls-1, .cls-2, .cls-3, .cls-4, .cls-5, .cls-6, .cls-7, .cls-8, .cls-9, .cls-10, .cls-11, .cls-12, .cls-13, .cls-14, .cls-15, .cls-16, .cls-17, .cls-18, .cls-19, .cls-20, .cls-21, .cls-22, .cls-23, .cls-24, .cls-25, .cls-26, .cls-27, .cls-28, .cls-29, .cls-30, .cls-31, .cls-32, .cls-33, .cls-34, .cls-35, .cls-36, .cls-37, .cls-38, .cls-39, .cls-40, .cls-41, .cls-42 {
        stroke-width: 0px;
      }

      .cls-2 {
        fill: #35373b;
      }

      .cls-3 {
        fill: #868993;
      }

      .cls-4 {
        fill: #282a2e;
      }

      .cls-43 {
        clip-path: url(#clippath);
      }

      .cls-5 {
        fill: none;
      }

      .cls-6 {
        fill: #f9e8ca;
      }

      .cls-7 {
        fill: #4d4d4d;
      }

      .cls-8 {
        fill: #4258b2;
      }

      .cls-9 {
        fill: #afafaf;
      }

      .cls-10 {
        fill: #ffe5cc;
      }

      .cls-11 {
        fill: #757575;
      }

      .cls-12 {
        fill: #292929;
      }

      .cls-13 {
        fill: #ffb99e;
      }

      .cls-14 {
        fill: #ab97a7;
      }

      .cls-15 {
        fill: #691332;
      }

      .cls-16 {
        fill: url(#_ÂÁ_Ï_ÌÌ_È_ËÂÌÚ_2);
      }

      .cls-16, .cls-44 {
        opacity: .5;
      }

      .cls-16, .cls-37 {
        mix-blend-mode: multiply;
      }

      .cls-17 {
        fill: #ffddca;
      }

      .cls-18 {
        fill: #4f4f4f;
      }

      .cls-45 {
        clip-path: url(#clippath-4);
      }

      .cls-46 {
        clip-path: url(#clippath-2);
      }

      .cls-47 {
        clip-path: url(#clippath-5);
      }

      .cls-19 {
        fill: #363742;
      }

      .cls-20 {
        opacity: .31;
      }

      .cls-20, .cls-27 {
        fill: #fff;
      }

      .cls-21 {
        fill: #eae0d3;
      }

      .cls-22 {
        fill: #8c593e;
      }

      .cls-23, .cls-37 {
        fill: #000;
      }

      .cls-24 {
        fill: #7d2344;
      }

      .cls-25 {
        fill: #7d4520;
      }

      .cls-26 {
        fill: #ffcab1;
      }

      .cls-27 {
        mix-blend-mode: screen;
        opacity: .6;
      }

      .cls-28 {
        fill: #253a7c;
      }

      .cls-29 {
        fill: #232323;
      }

      .cls-30 {
        fill: #7a4c34;
      }

      .cls-31 {
        fill: #f4a08c;
      }

      .cls-32 {
        fill: #9b6335;
      }

      .cls-33 {
        fill: #6b6b6b;
      }

      .cls-34 {
        fill: #1d1e21;
      }

      .cls-35 {
        fill: #fff4e3;
      }

      .cls-36 {
        fill: #34363a;
      }

      .cls-37 {
        opacity: .25;
      }

      .cls-38 {
        fill: #d6b799;
      }

      .cls-39 {
        fill: #90a6ba;
      }

      .cls-48 {
        isolation: isolate;
      }

      .cls-40 {
        fill: #3d3b50;
      }

      .cls-41 {
        fill: #79767c;
      }

      .cls-42 {
        fill: #2e2f38;
      }
    </style>
    <clipPath id="clippath">
      <path class="cls-5" d="M0,0h229.39v222.17H34.11c-18.83,0-34.11-15.28-34.11-34.11V0h0Z"/>
    </clipPath>
    <clipPath id="clippath-2">
      <path class="cls-5" d="M83.59,44.46c-4.96.05-9.92.11-14.88.18-7.63.11-14.29,4.79-16.36,11.5-.09.3-.19.6-.28.9-1.09,3.52-3.47,6.59-6.73,8.69-3.14,2.03-6.28,4.06-9.41,6.09-7.06,4.59-11.29,12.01-11.41,19.95h0c-.08,5.15,1.57,10.19,4.72,14.43,6.14,8.28,12.24,16.58,18.3,24.89,7.77,10.67,7.83,24.68.35,35.51h0c-4.62,6.69-6.4,14.78-5.04,22.65,3.58,20.76,7.11,41.53,10.58,62.3,35.85-.71,71.71-.84,107.57-.4-4.12-23.57-8.34-47.13-12.65-70.69-1.09-5.98-3.96-11.54-8.29-16.02-1.55-1.61-3.1-3.21-4.66-4.82-7.33-7.57-10.43-17.97-8.26-28.02,2.3-8.33,4.62-16.65,6.95-24.97,3.76-9.88,2.43-18.08,2.43-18.08-2.97-11.31-14.14-20.24-25.74-24.96-.46-.19-.92-.37-1.37-.56-3.23-1.31-5.94-3.5-7.77-6.27-1.05-1.58-2.1-3.17-3.15-4.75-3.15-4.74-8.81-7.61-14.89-7.55Z"/>
    </clipPath>
    <linearGradient id="_ÂÁ_Ï_ÌÌ_È_ËÂÌÚ_2" data-name="¡ÂÁ˚ÏˇÌÌ˚È „‡‰ËÂÌÚ 2" x1="75.29" y1="65.21" x2="64.18" y2="65.57" gradientTransform="translate(55.28 20.67) rotate(-7.72)" gradientUnits="userSpaceOnUse">
      <stop offset="0" stop-color="#9b6335"/>
      <stop offset=".3" stop-color="#986034"/>
      <stop offset=".48" stop-color="#905931"/>
      <stop offset=".62" stop-color="#824d2c"/>
      <stop offset=".75" stop-color="#6e3b25"/>
      <stop offset=".86" stop-color="#54251c"/>
      <stop offset=".97" stop-color="#340a11"/>
      <stop offset="1" stop-color="#29000d"/>
    </linearGradient>
    <clipPath id="clippath-4">
      <rect class="cls-5" x="177.19" y="66.54" width="17.76" height="37.04" rx="8.88" ry="8.88" transform="translate(336.36 223.88) rotate(-161.84)"/>
    </clipPath>
    <clipPath id="clippath-5">
      <path class="cls-5" d="M143.19,41.64s-.97-7.25-7.71-11.67c-4.56-2.99-21.67-2.35-21.67-2.35l-6.03,20.1,6.46,16.21-1.72,14.51-22.56-.92-2.45-5.54-1.3-13.24,5.64-21.96,11.66-15.15,10.81-3.66h14.79s5.07,3.46,6.65,5.47c7.43,9.51,7.43,18.19,7.43,18.19Z"/>
    </clipPath>
  </defs>
  <g class="cls-48">
    <g id="Camada_2" data-name="Camada 2">
      <g id="Camada_1-2" data-name="Camada 1">
        <g class="cls-43">
          <g id="character_sit" data-name="character sit">
            <g>
              <g>
                <path class="cls-33" d="M128.17,182.45c2.27-1.69,4.53-3.37,6.81-5.06,0-.05,0-.11,0-.16,0,0,.4-.27,1.16-.7,0,0,0,0,.01,0h0c6-3.4,36.96-17.83,91.08,6.57-.08,2.55-.16,5.09-.24,7.64-2.28.8-4.57,1.6-6.85,2.41.03-.87.05-1.74.08-2.62-28.43-.84-56.86-1.32-85.3-1.44-2.25-2.21-4.5-4.42-6.75-6.63Z"/>
                <path class="cls-29" d="M174.25,236.79c-2.3-17.43-4.64-34.86-7.03-52.28,4.97.07,9.94.15,14.91.24-.32,17.39-.63,34.78-.95,52.16-2.31-.04-4.62-.08-6.94-.12Z"/>
                <path class="cls-29" d="M128.17,179.83c-.16.09,31.21-21.65,92.19,5.67-.07,2.55-.15,5.09-.22,7.64-30.66-.9-61.33-1.39-92-1.47,0-3.95.02-7.9.03-11.85Z"/>
              </g>
              <g>
                <path class="cls-7" d="M67.95,44.66c-4.96.07-9.92.15-14.88.25-7.63.14-14.26,4.86-16.31,11.57-.09.3-.18.6-.28.91-1.07,3.52-3.44,6.6-6.69,8.72-3.13,2.04-6.26,4.08-9.38,6.13-7.04,4.62-11.24,12.06-11.33,20h0c-.06,5.15,1.62,10.19,4.78,14.41,6.18,8.25,12.32,16.52,18.41,24.81,7.82,10.64,7.94,24.65.51,35.51h0c-4.59,6.71-6.34,14.8-4.94,22.67,3.67,20.74,7.29,41.49,10.85,62.25,35.85-.86,71.71-1.15,107.57-.87-4.23-23.55-8.55-47.1-12.96-70.63-1.12-5.97-4.01-11.52-8.36-15.99-1.56-1.6-3.12-3.2-4.68-4.8-7.36-7.54-10.51-17.93-8.38-27.98,2.26-8.34,4.54-16.67,6.84-25,3.72-9.9,2.35-18.09,2.35-18.09-3.02-11.3-14.22-20.18-25.84-24.85-.46-.18-.92-.37-1.38-.55-3.23-1.3-5.96-3.47-7.8-6.23-1.06-1.58-2.11-3.16-3.17-4.74-3.17-4.73-8.84-7.57-14.92-7.49Z"/>
                <path class="cls-9" d="M83.59,44.46c-4.96.05-9.92.11-14.88.18-7.63.11-14.29,4.79-16.36,11.5-.09.3-.19.6-.28.9-1.09,3.52-3.47,6.59-6.73,8.69-3.14,2.03-6.28,4.06-9.41,6.09-7.06,4.59-11.29,12.01-11.41,19.95h0c-.08,5.15,1.57,10.19,4.72,14.43,6.14,8.28,12.24,16.58,18.3,24.89,7.77,10.67,7.83,24.68.35,35.51h0c-4.62,6.69-6.4,14.78-5.04,22.65,3.58,20.76,7.11,41.53,10.58,62.3,35.85-.71,71.71-.84,107.57-.4-4.12-23.57-8.34-47.13-12.65-70.69-1.09-5.98-3.96-11.54-8.29-16.02-1.55-1.61-3.1-3.21-4.66-4.82-7.33-7.57-10.43-17.97-8.26-28.02,2.3-8.33,4.62-16.65,6.95-24.97,3.76-9.88,2.43-18.08,2.43-18.08-2.97-11.31-14.14-20.24-25.74-24.96-.46-.19-.92-.37-1.37-.56-3.23-1.31-5.94-3.5-7.77-6.27-1.05-1.58-2.1-3.17-3.15-4.75-3.15-4.74-8.81-7.61-14.89-7.55Z"/>
                <g class="cls-46">
                  <path class="cls-11" d="M79.51,242.68c14.86.52,29.71,1.14,44.54,1.86-1.62-79.37-15.11-158.79-42.18-234.29-14.74,5.39-29.42,10.88-44.03,16.45,38.85,66.51,49.11,143.47,41.67,215.98Z"/>
                </g>
                <g class="cls-44">
                  <path class="cls-29" d="M20.42,72.23c3.12-2.05,6.25-4.09,9.38-6.13,3.25-2.12,5.62-5.2,6.69-8.72.09-.3.18-.6.28-.91,2.04-6.72,8.67-11.43,16.31-11.57,4.49-.08,8.97-.16,13.46-.23-1.34-.28-26.1,11.56-25.98,56.15.09,23.91,29.42,29.47,20.39,57.63-.14.44-.3.9-.46,1.37-5.74,16.09-6.29,33.44-.93,49.6,2.68,8.08,5.67,15.52,8.94,21.99-1.09-.25-2.28-.19-3.51.35-10.17,4.46-20.9,8.76-30.33,14.72-.31-1.62-.61-3.25-.92-4.87-.34-1.78.81-3.43,2.51-3.91-2.77-16.03-5.57-32.06-8.41-48.08-.16-.93-.28-1.87-.36-2.8-.03-.35-.03-.69-.05-1.04-.03-.58-.06-1.16-.05-1.74,0-.44.04-.88.06-1.32.03-.47.05-.95.1-1.42.05-.5.12-.99.2-1.49.06-.4.12-.8.2-1.2.1-.54.23-1.08.36-1.62.08-.33.17-.67.27-1,.16-.58.34-1.15.54-1.73.09-.26.2-.53.3-.79.24-.62.48-1.23.76-1.84.08-.18.17-.35.26-.52.68-1.43,1.45-2.82,2.36-4.15,7.43-10.87,7.32-24.88-.5-35.52-2.02-2.74-4.04-5.49-6.07-8.22-4.06-5.49-8.14-10.96-12.23-16.43-1.43-1.91-2.63-3.96-3.43-6.16-3.94-10.8.36-22.16,9.87-28.39Z"/>
                </g>
              </g>
              <g>
                <path class="cls-18" d="M63.73,67.19c-1.77-.17-3.13-.07-4.56.2-1.4.27-2.71.72-3.97,1.28-2.52,1.11-4.63,2.84-6.47,4.78-1.86,1.92-3.38,4.16-4.42,6.59-1.09,2.39-1.56,5.06-1.37,7.68.11,1.45,1.48,2.55,3.05,2.44.55-.04,1.05-.21,1.47-.49.1-.07.2-.13.3-.2,2.09-1.4,3.67-2.73,5.35-3.93,1.62-1.23,3.17-2.38,4.75-3.52,1.56-1.15,3.14-2.24,4.57-3.62.73-.67,1.43-1.4,2.12-2.21.65-.81,1.42-1.72,1.86-2.75.19-.45.38-.89.57-1.34.79-1.86-.21-3.96-2.24-4.68-.32-.11-.67-.19-1-.22Z"/>
                <path class="cls-18" d="M94.22,73.12c.46,1.02,1.25,1.91,1.92,2.71.7.8,1.42,1.51,2.17,2.17,1.46,1.34,3.07,2.4,4.65,3.51,1.6,1.1,3.18,2.22,4.82,3.41,1.71,1.16,3.32,2.46,5.44,3.81.1.06.2.13.3.19,1.3.83,3.08.53,3.98-.67.31-.42.48-.9.51-1.37.14-2.63-.39-5.28-1.54-7.65-1.09-2.4-2.66-4.6-4.56-6.49-1.89-1.89-4.04-3.58-6.58-4.63-1.26-.53-2.59-.95-3.99-1.19-1.44-.24-2.8-.31-4.56-.1-2.16.26-3.68,2.07-3.4,4.05.04.32.13.62.26.9.2.45.4.9.6,1.34Z"/>
              </g>
              <path class="cls-33" d="M210.96,237.78c0,.18-1.31-15.19-73.84-15.88-72.56-.17-97.83,15.76-97.8,15.6,28.66,1.62,57.26,3.6,85.81,5.95.03-.24,74.53,4.03,85.83-5.67Z"/>
            </g>
            <g>
              <g>
                <path id="shin_right" data-name="shin right" class="cls-42" d="M154.78,306.24l-4.67-1.65s1.43-55.02,5.06-66.68c1.81-5.82,11.73-22.96,17.1-29.97,5.38-7.04,20.85-3.08,17.03,9.02-6.1,16.8-17.57,43.87-34.52,89.28Z"/>
                <path class="cls-42" d="M155.19,186.44s29.52,18.12,31.97,20.64c2.45,2.52-25.79,17.75-25.79,17.75l-50.98-.36-12.83-36.89s50.54-5.88,57.64-1.13Z"/>
              </g>
              <path class="cls-19" d="M92.57,186.65s-8.39,11.91-8.79,18.81c-1.27,22.28,11.07,25.93,14.82,27.1,3.12.98,51.89,5.11,55.26,1.32,3.38-3.79,11.63-20.17,10.88-22.78-1.57-5.54-48.73-25.32-48.73-25.32l-23.45.86Z"/>
              <path id="shin_left" data-name="shin left" class="cls-19" d="M144.69,217.54s-3.41,26.93-2.9,37.23c.52,10.3,19.7,56.9,19.7,56.9l5.44-.53c-2.29-79.11-.74-97.95-.74-97.95-.68-6.71-19.92-8.08-21.5,4.35Z"/>
            </g>
            <g id="right_hand" data-name="right hand">
              <path class="cls-24" d="M144.44,134.6c3.26,23.02,5.71,29.81,12.12,30.26,11.36.79,6.58-18.71,4.98-33.6-3.13-29.1-5.79-32.33-14.07-32.16-8.75.18-6.82,4.31-3.03,35.5Z"/>
              <g>
                <path class="cls-22" d="M187.21,174.01s6.03,7.31,6.8,8.35c3,4.04,1.91,5.06,1.63,5.43,0,0,.08,2.89-.36,3.07-.75.3-.73-.58-1.4-3.89-.15-.73-.68-2.61-1.01-2.6-.32.01.34,1.63.64,2.77.25.96.07,4.85-1.09,4.64-.75-.13-.37-3.44-.59-4.58-.16-.84-.99-2.76-1.39-2.76s.15,2.34.16,2.84c0,.5.01,3.19-.69,3.12-1.08-.12-.61-1.96-.96-3.91-.26-1.45-2.12-4.86-2.49-5.12-.44-.31-.72,1.1-.68,2.34.04,1.24-.43,2.86-1.16,2.58s-.2-3.54-.5-6.13c-.31-2.58.93-4.92.93-4.92,0,0,1.72-1.51,2.15-1.25Z"/>
                <path class="cls-30" d="M185.13,186.12c-.74-.28-.2-3.54-.5-6.13s.44-4.73.44-4.73c0,0-1.24,2.34-.93,4.92.31,2.58-.24,5.84.5,6.13.21.08.4,0,.56-.18-.02,0-.04,0-.06,0Z"/>
              </g>
              <g>
                <polygon class="cls-22" points="181.05 168.56 187.24 174.05 185.32 176.54 177.2 172.38 181.05 168.56"/>
                <polygon class="cls-30" points="177.94 171.65 177.2 172.38 185.32 176.54 185.93 175.75 177.94 171.65"/>
                <path class="cls-24" d="M152.89,163.97c7.73,7.57,22.93,9.55,26.26,10.87l3.86-5.54s-14.43-12.31-21.83-16.02c-5.23-2.62-7.66-1.12-9.33,1.58-1.42,2.29-3.01,5.14,1.04,9.11Z"/>
                <path class="cls-6" d="M182.93,169.44l-3.5,4.99,2.62,1.47s.71-1.1-.43-2.57c2.67.28,3.46-2.44,3.46-2.44l-2.15-1.46Z"/>
                <path class="cls-15" d="M152.5,160.38c-.93-1-1.56-1.93-1.98-2.79-.5,1.77-.22,3.84,2.37,6.38,7.73,7.57,22.93,9.55,26.26,10.87l.81-1.16c-5.76-2.2-19.95-5.25-27.46-13.3Z"/>
              </g>
            </g>
            <g id="body_sit_straight">
              <path class="cls-24" d="M140.27,151.62c0-6.31,10.59-16.29,12.79-24.12,2.19-7.84-1.32-27.87-1.32-27.87,0,0-19.06-4.42-29.1-3.8-10.03.63-33.68,10.33-33.68,10.33,2.82,30.41,22.7,40.31,22.7,46.5s-16.93,22.49-21.95,35.66c-5.02,13.17,66.82,9.93,72.16-.95-7.91-9.49-21.61-27.89-21.61-35.76Z"/>
              <path class="cls-15" d="M145.94,165.43c-3.58-5.12-5.66-11-5.66-13.81,0-6.31,10.59-16.29,12.79-24.12,0,0-4.08,12.14-20.07,14.42-20.49,2.93-27.38-2.51-36.47-10.81,6.67,11.89,15.15,17.51,15.15,21.55,0,2.41-2.57,6.35-6,11.04,0,0,14.51-7.91,24.34-8.12,5.73-.12,12.03,5.06,15.92,9.84Z"/>
              <path class="cls-24" d="M101.25,101.51s6.24,17.41,29.24,28.28c0,0,12.7-14.63,13.46-31.77,0,0-14.83-3.3-21.29-2.2-9.3-.31-21.4,5.68-21.4,5.68Z"/>
              <path class="cls-30" d="M111.49,70.43s4.36,18.19-3.17,28.22l27,25.22,2.51-27.02s-5.94,2.63-6.49-27.89l-19.86,1.46Z"/>
              <polygon class="cls-35" points="103.34 100.53 109.58 91.34 126.34 106.49 121.94 117.3 103.34 100.53"/>
              <polygon class="cls-35" points="132.37 105.18 140.65 110.78 140.15 96.5 134.46 90.29 132.37 105.18"/>
              <polygon class="cls-21" points="126.34 106.49 128.23 117.3 123.64 113.11 126.34 106.49"/>
              <polygon class="cls-21" points="132.37 105.18 136.2 114.56 136.8 108.1 132.37 105.18"/>
            </g>
            <g id="Woman">
              <path class="cls-4" d="M152.18,58.43c-3.83-2.23,3.67-7.06.79-11.67-1.68-2.7,3.42-2.86,2.92-11.08-.26-4.36-5.84-9.71-3.89-11.26,3.16-2.52.35-8.12-11.69-12.27-2.52-.87-3.61-6.19-6.21-7.35-2.47-1.11-7.28-1.3-9.46.3-2.18,1.61-2.52,2.07-5.23,2.03-3.15-.05-2.56-1.89-5.63-2.59-6.27-1.42-14.19.93-15.61,5.53-.5,1.62-8.46.92-10.26,1.17-3.63.5-11.94,6.3-6.21,11.18,2.82,2.41-2.64.1-5.5,2.39-1.39,1.11-3.4,2.34-4.64,3.61-1.24,1.27-2.94,6.02-1.71,7.3.45.46,6.61,6.06.41,6.44-5.59.34-5.07,6.46-5.29,9.42-.21,2.97,3.01,4.95,5.58,6.43,2.28,1.32-.69,2.43-1.54,8.2-.26,1.76,4.17,5.5,4.35,7.27,1.26,12.63,8.91,12.29,13.45,11.23,2.06-.48,6.26.5,5.87,1.82-1.61,5.41,19.16.57,19.77-3.4.17-1.13,8.11-.2,9.08,1.67.43.83,9.48-6.88,10.95-5.27,9.48,10.42,24-7.99,18.55-12.45,0,0,8.15-4.56,1.15-8.64Z"/>
              <path class="cls-34" d="M98.04,57.77c-16.9-36.65,25.39-48.35,40.22-26.38-22.55-21.85-48.91-3.79-40.22,26.38Z"/>
              <g>
                <path class="cls-22" d="M145.69,61.02c1.98,17.79-10.09,29.07-13.54,29.54-3.45.47-23.06-2.72-26.82-20.22-5.01-23.29-4.31-38.99,16.39-41.79,20.7-2.81,21.72,12.3,23.97,32.47Z"/>
                <path class="cls-30" d="M134.03,89.58c-2.73.37-16.61-4.77-19.58-19.56-4.29-21.38-3.11-36.44,7.26-41.47-21.81,1.72-21.08,19.95-16.39,41.79,3.76,17.49,23.37,20.69,26.82,20.22.57-.08,1.39-.46,2.33-1.11-.16.07-.31.12-.44.13Z"/>
                <path class="cls-30" d="M107.26,65.38c.38,2.77-1.57,5.32-4.34,5.7-2.77.38-5.32-1.57-5.7-4.34s1.57-5.32,4.34-5.7c2.77-.38,5.32,1.57,5.7,4.34Z"/>
                <path class="cls-25" d="M101.47,66.23c-.17-1.22.49-2.35,1.53-2.87-.36-.1-.74-.13-1.13-.08-1.53.21-2.6,1.62-2.4,3.15.21,1.53,1.62,2.6,3.15,2.4.31-.04.6-.15.87-.28-1.04-.29-1.86-1.18-2.02-2.32Z"/>
                <g>
                  <path class="cls-25" d="M132.32,48.94s-3.65,5.61-3.19,9.15c.46,3.54,6.97,6.8,6.97,6.8,0,0-2.22,3.5-6.4,4.94,0,0,6.5.35,7.89-4.68-.11-.83-5.45-2.61-6.38-7.49-.82-4.3,1.11-8.72,1.11-8.72Z"/>
                  <path class="cls-34" d="M124.03,46.49c.19.54-1.91,1.39-4.99,2.5-3.08,1.11-5.97,2.07-6.17,1.53-.19-.54,2.38-2.37,5.47-3.48,3.08-1.11,5.5-1.09,5.7-.55Z"/>
                  <path class="cls-34" d="M137.34,45.41c-.04.57,2.21.83,5.48,1.08,1.67-.15,1.97-1.5.16-2.06-3.27-.25-5.59.41-5.64.98Z"/>
                  <g>
                    <path class="cls-10" d="M115.69,58.78s2.71,2.58,5.7,2.18c2.99-.41,3.06-3.41,3.06-3.41,0,0-1.18-3.67-3.64-3.14-2.46.53-5.13,4.37-5.13,4.37Z"/>
                    <ellipse class="cls-34" cx="120.97" cy="57.88" rx="2.76" ry="3.1" transform="translate(-6.68 16.78) rotate(-7.72)"/>
                    <path class="cls-34" d="M125.23,58.56s-2.8-4.22-4.99-3.36c-2.18.86-5.17,4.23-5.17,4.23l-2.9-2.32,2.96.41s6.33-9.7,10.1,1.04Z"/>
                  </g>
                  <g>
                    <path class="cls-10" d="M135.46,56.08s1.62,2.64,4.51,2.25,2.97-3.3,2.97-3.3c0,0-1.14-3.56-3.52-3.04-2.38.52-3.96,4.1-3.96,4.1Z"/>
                    <path class="cls-34" d="M142.21,54.99c.22,1.64-.78,3.14-2.24,3.33s-2.83-.97-3.05-2.62.78-3.14,2.24-3.33,2.83.97,3.05,2.62Z"/>
                    <path class="cls-34" d="M143.69,56.01s-1.81-3.53-4.15-3.31c-2.26.22-4.61,4.54-4.61,4.54.09-1.83,4.5-11.09,8.61-3.12l1.98-.9-1.84,2.78Z"/>
                  </g>
                  <g>
                    <path class="cls-34" d="M123.45,75.28c-.06.19-.65.19-.84.13s-.3-.26-.25-.45.26-.3.45-.25.69.37.64.56Z"/>
                    <path class="cls-34" d="M138.39,73.54c.13.15.66-.12.81-.25.15-.13.16-.36.02-.51-.13-.15-.36-.16-.51-.02-.15.13-.46.64-.32.78Z"/>
                    <path class="cls-32" d="M122.99,75.14l15.75-1.81s-2.05,5.01-7.07,5.69-8.68-3.88-8.68-3.88Z"/>
                    <path class="cls-16" d="M122.99,75.14l15.75-1.81s-2.05,5.01-7.07,5.69-8.68-3.88-8.68-3.88Z"/>
                    <path class="cls-6" d="M124.19,75.44l12.75-1.49s-2.01,4.37-6.27,4.53c-4.26.15-6.49-3.04-6.49-3.04Z"/>
                    <path class="cls-38" d="M124.19,75.44l12.75-1.49-.61,1.04s-1.46-.62-5.64-.05c-4.18.57-5.8,1.29-5.8,1.29,0,0-.51-.55-.7-.79Z"/>
                  </g>
                  <ellipse class="cls-25" cx="131.98" cy="81.31" rx="2.43" ry=".8" transform="translate(-9.73 18.47) rotate(-7.72)"/>
                </g>
              </g>
              <path class="cls-4" d="M138.39,32.33c-4.7,5.2-18.09,3.11-24.66,4.49-6.93,1.45-5.36,18.36-7.64,28.72l-4.53-4.5c-17.21-36.55,27.7-49.05,36.83-28.7Z"/>
              <path class="cls-34" d="M104.16,51.32s-2.14-6.35-5.49-12.51c1.14,4.14,5.49,12.51,5.49,12.51Z"/>
              <path class="cls-34" d="M104.99,57.39c-5.68-7.55-4.81-10.61-7.22-15.91,2.73,6.02,4.82,11.47,7.22,15.91Z"/>
              <path class="cls-2" d="M101.45,36.62c1.98,1.85,4.44,1.04,6.7,1.69.4-.54.76-1.21,1.03-2.08.33-1.05.44-2.13.39-3-1.56-.47-2.79-1.13-3.97-2.28-.37-.36-2.52-.92-2.98-.57-1.16.89-2.13,1.98-2.77,4.58-.03.13-.04.25-.07.38.53.36,1.08.74,1.66,1.29Z"/>
              <path class="cls-2" d="M84.24,27.23c3.35,2.47,7.22,2.26,10.9,3.53.58-.46,1.1-1.08,1.45-1.92.42-1.01.49-2.12.32-3.06-2.55-.91-4.58-1.92-6.58-3.44-.62-.47-4.13-1.63-4.82-1.38-1.77.63-3.22,1.52-3.98,4.09-.04.13-.04.25-.07.38.88.52,1.8,1.06,2.79,1.79Z"/>
            </g>
            <g id="left_hand_with_cup" data-name="left hand with cup">
              <path class="cls-24" d="M69.68,131.91c-12.75,19.44-15.4,26.16-10.87,30.73,8.01,8.09,17.3-9.71,25.92-21.95,16.86-23.92,16.99-28.1,10.66-33.45-6.69-5.64-7.97-1.26-25.71,24.67Z"/>
              <g>
                <g>
                  <path class="cls-26" d="M122.45,165.73c-.32.04-.65.05-.98.02-2.52-.2-3.7-2.23-3.51-4.61.19-2.38,1.68-4.2,4.19-4,.33.03.66.09.96.18l.14-1.8c-.36-.09-.73-.16-1.11-.19-3.57-.28-5.68,2.3-5.95,5.67s1.41,6.25,4.98,6.54c.38.03.76.02,1.13,0l.14-1.8Z"/>
                  <g>
                    <path class="cls-31" d="M116.22,160.76c0,.08-.02.16-.03.25-.27,3.37,1.41,6.25,4.98,6.54.38.03.76.02,1.13,0l.04-.49c-.37.03-.75.04-1.13,0-3.48-.28-5.16-3.03-4.99-6.29Z"/>
                    <path class="cls-31" d="M118,160.65c0,.08,0,.16-.01.25.27-2.25,1.74-3.95,4.17-3.75.33.03.66.09.96.18l.04-.49c-.31-.09-.63-.15-.96-.18-2.52-.2-4.01,1.62-4.19,4Z"/>
                  </g>
                  <rect class="cls-26" x="122.39" y="152.66" width="13.96" height="18.76" transform="translate(13.19 -9.7) rotate(4.53)"/>
                  <rect class="cls-13" x="129.17" y="152.93" width="7.16" height="18.76" transform="translate(13.22 -9.97) rotate(4.53)"/>
                  <rect class="cls-31" x="131.48" y="152.97" width="3.79" height="18.76" transform="translate(13.23 -10.02) rotate(4.53)"/>
                  <rect class="cls-17" x="123.1" y="152.69" width="13.96" height=".82" transform="translate(12.49 -9.79) rotate(4.53)"/>
                  <path class="cls-17" d="M124.1,152.71l4.68.37s-2.64,9.83-3.56,9.75c-.92-.07-1.12-10.12-1.12-10.12Z"/>
                  <path class="cls-17" d="M123.57,170.38l2.65.21s-.75-3.4-1.34-3.45-1.31,3.24-1.31,3.24Z"/>
                  <rect class="cls-31" x="121.67" y="170.97" width="13.96" height=".42" transform="translate(13.91 -9.62) rotate(4.53)"/>
                  <path class="cls-27" d="M129.57,151.67s.39-1.74-.14-3.4c-.97-3.02-2.86-4.6.22-5.93,3.08-1.33,3.81-2.18,3.61-2.77-.2-.59-2.78-1.38-3.06-1.98-.28-.6,1.81-2,2.06-3.06.25-1.05.75-3.24.72-4.98,0,0,.75,4.11.5,5.16-.25,1.05-.61,2.43-.61,2.43,0,0,2.59,1.69,2.77,2.61.17.92.54,3.59.09,4.14-.46.54-4.96,2.17-5.19,2.98s.23,2.25.19,2.82-1.15,1.97-1.15,1.97Z"/>
                </g>
                <g>
                  <path class="cls-22" d="M121.57,157.67c-1.33-.21-6.48.09-9.2.7-1.86,1.56.25,2.89.25,2.89,0,0,5.21,4.06,6.72,4.08,0,0,1.22.29,1.13-1.25.01-.02.02-.04.03-.07.21-.09,1.41-.65.76-1.91,0-.01,0-.02.01-.03.18-.1,1.5-.9.61-2.41,0-.06.02-.12.03-.17.24-.36.95-1.6-.34-1.83Z"/>
                  <path class="cls-30" d="M121.66,157.69c.47.43-.01,1.25-.19,1.53,0,.05-.02.11-.03.17.85,1.44-.41,2.22-.58,2.31,0,.01,0,.02-.01.03.62,1.21-.53,1.75-.73,1.84-.01.02-.02.04-.03.07.09,1.48-1.08,1.2-1.08,1.2-1.37-.02-5.91-4.3-7.32-5.55-.47.87.94,1.98.94,1.98,0,0,5.21,4.06,6.72,4.08,0,0,1.22.29,1.13-1.25.01-.02.02-.04.03-.07.21-.09,1.41-.65.76-1.91,0-.01,0-.02.01-.03.18-.1,1.5-.9.61-2.41,0-.06.02-.12.03-.17.23-.35.91-1.53-.25-1.8Z"/>
                </g>
              </g>
              <g>
                <polygon class="cls-22" points="103.36 157.9 113.79 158.29 113.96 161.71 102.75 163.75 103.36 157.9"/>
                <polygon class="cls-30" points="102.86 162.63 102.75 163.75 113.96 161.71 113.91 160.62 102.86 162.63"/>
                <path class="cls-24" d="M63.76,166.24c13.22,3.34,37.5-1.79,41.95-2.21l.58-7.32s-30.06-6.18-40.44-5.97c-7.33.15-9.04,3.79-9.1,7.25-.05,2.93.07,6.5,7,8.25Z"/>
                <path class="cls-6" d="M106.24,157.17l-.49,6.31,3.77.08s.06-1.43-2.12-2.25c3.05-1.1,2.16-4.12,2.16-4.12h-3.32Z"/>
                <path class="cls-15" d="M61.02,162.98c-1.65-.49-2.93-1.06-3.93-1.68.6,1.96,2.25,3.82,6.67,4.94,13.22,3.34,37.5-1.79,41.95-2.21l.12-1.53c-7.63.83-31.52,4.41-44.81.49Z"/>
              </g>
            </g>
            <g>
              <path class="cls-33" d="M33.34,187.17c2.22-1.75,4.44-3.5,6.67-5.24,0-.05,0-.11,0-.16,0,0,.4-.28,1.14-.73,0,0,0,0,.01,0,0,0,0,0,0,0,5.9-3.57,36.47-18.85,91.26,4.04,0,2.55-.02,5.1-.03,7.64-2.26.86-4.52,1.73-6.78,2.6,0-.87,0-1.75,0-2.62-28.45-.05-56.89.26-85.34.92-2.31-2.15-4.62-4.3-6.94-6.44Z"/>
              <path class="cls-29" d="M80.92,240.21c-2.78-17.36-5.61-34.72-8.47-52.07,4.97-.07,9.95-.13,14.92-.17.16,17.39.33,34.78.49,52.17-2.31.02-4.63.05-6.94.07Z"/>
              <path class="cls-29" d="M33.27,184.55c-.16.1,30.62-22.5,92.35,3.12,0,2.55,0,5.1-.01,7.64-30.68-.05-61.36.31-92.04,1.08-.1-3.95-.2-7.9-.3-11.85Z"/>
            </g>
          </g>
          <g>
            <polygon class="cls-12" points="201.45 45.53 196.19 61.57 191.84 60.14 196.61 45.53 201.45 45.53"/>
            <rect class="cls-12" x="173.56" y="81.82" width="26.97" height=".42" transform="translate(339.2 218.27) rotate(-161.84)"/>
            <g class="cls-45">
              <path class="cls-23" d="M173.48,94.95l8.31-25.32c.89-2.73,3.83-4.21,6.56-3.32l7,2.3c2.73.89,4.21,3.83,3.32,6.56l-8.31,25.32c-.89,2.73-3.83,4.21-6.56,3.32l-7-2.3c-1.78-.58-3.03-2.04-3.43-3.73-.22-.9-.19-1.88.12-2.82Z"/>
              <g>
                <path class="cls-3" d="M181.94,102.49c.19.06.3.27.24.46l-.34,1.05c-.06.19-.27.3-.46.24s-.3-.27-.24-.46l.34-1.05c.06-.19.27-.3.46-.24Z"/>
                <path class="cls-3" d="M192.58,70.06c.19.06.3.27.24.46l-.66,2.03c-.06.19-.27.3-.46.24s-.3-.27-.24-.46l.66-2.03c.06-.19.27-.3.46-.24ZM191.25,74.11c.19.06.3.27.24.46l-.66,2.03c-.06.19-.27.3-.46.24s-.3-.27-.24-.46l.66-2.03c.06-.19.27-.3.46-.24ZM189.92,78.16c.19.06.3.27.24.46l-.66,2.03c-.06.19-.27.3-.46.24s-.3-.27-.24-.46l.66-2.03c.06-.19.27-.3.46-.24ZM188.59,82.22c.19.06.3.27.24.46l-.66,2.03c-.06.19-.27.3-.46.24s-.3-.27-.24-.46l.66-2.03c.06-.19.27-.3.46-.24ZM187.26,86.27c.19.06.3.27.24.46l-.66,2.03c-.06.19-.27.3-.46.24s-.3-.27-.24-.46l.66-2.03c.06-.19.27-.3.46-.24ZM185.93,90.33c.19.06.3.27.24.46l-.66,2.03c-.06.19-.27.3-.46.24s-.3-.27-.24-.46l.66-2.03c.06-.19.27-.3.46-.24ZM184.6,94.38c.19.06.3.27.24.46l-.66,2.03c-.06.19-.27.3-.46.24s-.3-.27-.24-.46l.66-2.03c.06-.19.27-.3.46-.24ZM183.27,98.44c.19.06.3.27.24.46l-.66,2.03c-.06.19-.27.3-.46.24s-.3-.27-.24-.46l.66-2.03c.06-.19.27-.3.46-.24Z"/>
                <path class="cls-3" d="M193.59,66.98c.19.06.3.27.24.46l-.34,1.05c-.06.19-.27.3-.46.24s-.3-.27-.24-.46l.34-1.05c.06-.19.27-.3.46-.24Z"/>
              </g>
              <g>
                <path class="cls-3" d="M180.07,104.58c.19.06.3.27.24.46l-.34,1.05c-.06.19-.27.3-.46.24s-.3-.27-.24-.46l.34-1.05c.06-.19.27-.3.46-.24Z"/>
                <path class="cls-3" d="M191.16,70.77c.19.06.3.27.24.46l-.69,2.11c-.06.19-.27.3-.46.24s-.3-.27-.24-.46l.69-2.11c.06-.19.27-.3.46-.24ZM189.77,75c.19.06.3.27.24.46l-.69,2.11c-.06.19-.27.3-.46.24s-.3-.27-.24-.46l.69-2.11c.06-.19.27-.3.46-.24ZM188.39,79.23c.19.06.3.27.24.46l-.69,2.11c-.06.19-.27.3-.46.24s-.3-.27-.24-.46l.69-2.11c.06-.19.27-.3.46-.24ZM187,83.45c.19.06.3.27.24.46l-.69,2.11c-.06.19-.27.3-.46.24s-.3-.27-.24-.46l.69-2.11c.06-.19.27-.3.46-.24ZM185.61,87.68c.19.06.3.27.24.46l-.69,2.11c-.06.19-.27.3-.46.24s-.3-.27-.24-.46l.69-2.11c.06-.19.27-.3.46-.24ZM184.23,91.9c.19.06.3.27.24.46l-.69,2.11c-.06.19-.27.3-.46.24s-.3-.27-.24-.46l.69-2.11c.06-.19.27-.3.46-.24ZM182.84,96.13c.19.06.3.27.24.46l-.69,2.11c-.06.19-.27.3-.46.24s-.3-.27-.24-.46l.69-2.11c.06-.19.27-.3.46-.24ZM181.46,100.36c.19.06.3.27.24.46l-.69,2.11c-.06.19-.27.3-.46.24s-.3-.27-.24-.46l.69-2.11c.06-.19.27-.3.46-.24Z"/>
                <path class="cls-3" d="M192.2,67.61c.19.06.3.27.24.46l-.34,1.05c-.06.19-.27.3-.46.24s-.3-.27-.24-.46l.34-1.05c.06-.19.27-.3.46-.24Z"/>
              </g>
              <g>
                <path class="cls-3" d="M179.93,101.83c.19.06.3.27.24.46l-.34,1.05c-.06.19-.27.3-.46.24s-.3-.27-.24-.46l.34-1.05c.06-.19.27-.3.46-.24Z"/>
                <path class="cls-3" d="M190.57,69.4c.19.06.3.27.24.46l-.66,2.03c-.06.19-.27.3-.46.24s-.3-.27-.24-.46l.66-2.03c.06-.19.27-.3.46-.24ZM189.24,73.45c.19.06.3.27.24.46l-.66,2.03c-.06.19-.27.3-.46.24s-.3-.27-.24-.46l.66-2.03c.06-.19.27-.3.46-.24ZM187.91,77.51c.19.06.3.27.24.46l-.66,2.03c-.06.19-.27.3-.46.24s-.3-.27-.24-.46l.66-2.03c.06-.19.27-.3.46-.24ZM186.58,81.56c.19.06.3.27.24.46l-.66,2.03c-.06.19-.27.3-.46.24s-.3-.27-.24-.46l.66-2.03c.06-.19.27-.3.46-.24ZM185.25,85.61c.19.06.3.27.24.46l-.66,2.03c-.06.19-.27.3-.46.24s-.3-.27-.24-.46l.66-2.03c.06-.19.27-.3.46-.24ZM183.92,89.67c.19.06.3.27.24.46l-.66,2.03c-.06.19-.27.3-.46.24s-.3-.27-.24-.46l.66-2.03c.06-.19.27-.3.46-.24ZM182.59,93.72c.19.06.3.27.24.46l-.66,2.03c-.06.19-.27.3-.46.24s-.3-.27-.24-.46l.66-2.03c.06-.19.27-.3.46-.24ZM181.26,97.78c.19.06.3.27.24.46l-.66,2.03c-.06.19-.27.3-.46.24s-.3-.27-.24-.46l.66-2.03c.06-.19.27-.3.46-.24Z"/>
                <path class="cls-3" d="M191.58,66.32c.19.06.3.27.24.46l-.34,1.05c-.06.19-.27.3-.46.24s-.3-.27-.24-.46l.34-1.05c.06-.19.27-.3.46-.24Z"/>
              </g>
              <g>
                <path class="cls-3" d="M178.06,103.92c.19.06.3.27.24.46l-.34,1.05c-.06.19-.27.3-.46.24s-.3-.27-.24-.46l.34-1.05c.06-.19.27-.3.46-.24Z"/>
                <path class="cls-3" d="M189.15,70.11c.19.06.3.27.24.46l-.69,2.11c-.06.19-.27.3-.46.24s-.3-.27-.24-.46l.69-2.11c.06-.19.27-.3.46-.24ZM187.76,74.34c.19.06.3.27.24.46l-.69,2.11c-.06.19-.27.3-.46.24s-.3-.27-.24-.46l.69-2.11c.06-.19.27-.3.46-.24ZM186.38,78.57c.19.06.3.27.24.46l-.69,2.11c-.06.19-.27.3-.46.24s-.3-.27-.24-.46l.69-2.11c.06-.19.27-.3.46-.24ZM184.99,82.79c.19.06.3.27.24.46l-.69,2.11c-.06.19-.27.3-.46.24s-.3-.27-.24-.46l.69-2.11c.06-.19.27-.3.46-.24ZM183.6,87.02c.19.06.3.27.24.46l-.69,2.11c-.06.19-.27.3-.46.24s-.3-.27-.24-.46l.69-2.11c.06-.19.27-.3.46-.24ZM182.22,91.24c.19.06.3.27.24.46l-.69,2.11c-.06.19-.27.3-.46.24s-.3-.27-.24-.46l.69-2.11c.06-.19.27-.3.46-.24ZM180.83,95.47c.19.06.3.27.24.46l-.69,2.11c-.06.19-.27.3-.46.24s-.3-.27-.24-.46l.69-2.11c.06-.19.27-.3.46-.24ZM179.44,99.7c.19.06.3.27.24.46l-.69,2.11c-.06.19-.27.3-.46.24s-.3-.27-.24-.46l.69-2.11c.06-.19.27-.3.46-.24Z"/>
                <path class="cls-3" d="M190.19,66.95c.19.06.3.27.24.46l-.34,1.05c-.06.19-.27.3-.46.24s-.3-.27-.24-.46l.34-1.05c.06-.19.27-.3.46-.24Z"/>
              </g>
              <g>
                <path class="cls-3" d="M177.77,101.12c.19.06.3.27.24.46l-.34,1.05c-.06.19-.27.3-.46.24s-.3-.27-.24-.46l.34-1.05c.06-.19.27-.3.46-.24Z"/>
                <path class="cls-3" d="M188.41,68.69c.19.06.3.27.24.46l-.66,2.03c-.06.19-.27.3-.46.24s-.3-.27-.24-.46l.66-2.03c.06-.19.27-.3.46-.24ZM187.08,72.74c.19.06.3.27.24.46l-.66,2.03c-.06.19-.27.3-.46.24s-.3-.27-.24-.46l.66-2.03c.06-.19.27-.3.46-.24ZM185.75,76.8c.19.06.3.27.24.46l-.66,2.03c-.06.19-.27.3-.46.24s-.3-.27-.24-.46l.66-2.03c.06-.19.27-.3.46-.24ZM184.42,80.85c.19.06.3.27.24.46l-.66,2.03c-.06.19-.27.3-.46.24s-.3-.27-.24-.46l.66-2.03c.06-.19.27-.3.46-.24ZM183.09,84.91c.19.06.3.27.24.46l-.66,2.03c-.06.19-.27.3-.46.24s-.3-.27-.24-.46l.66-2.03c.06-.19.27-.3.46-.24ZM181.76,88.96c.19.06.3.27.24.46l-.66,2.03c-.06.19-.27.3-.46.24s-.3-.27-.24-.46l.66-2.03c.06-.19.27-.3.46-.24ZM180.43,93.02c.19.06.3.27.24.46l-.66,2.03c-.06.19-.27.3-.46.24s-.3-.27-.24-.46l.66-2.03c.06-.19.27-.3.46-.24ZM179.1,97.07c.19.06.3.27.24.46l-.66,2.03c-.06.19-.27.3-.46.24s-.3-.27-.24-.46l.66-2.03c.06-.19.27-.3.46-.24Z"/>
                <path class="cls-3" d="M189.42,65.61c.19.06.3.27.24.46l-.34,1.05c-.06.19-.27.3-.46.24s-.3-.27-.24-.46l.34-1.05c.06-.19.27-.3.46-.24Z"/>
              </g>
              <g>
                <path class="cls-3" d="M175.9,103.21c.19.06.3.27.24.46l-.34,1.05c-.06.19-.27.3-.46.24s-.3-.27-.24-.46l.34-1.05c.06-.19.27-.3.46-.24Z"/>
                <path class="cls-3" d="M186.99,69.41c.19.06.3.27.24.46l-.69,2.11c-.06.19-.27.3-.46.24s-.3-.27-.24-.46l.69-2.11c.06-.19.27-.3.46-.24ZM185.61,73.63c.19.06.3.27.24.46l-.69,2.11c-.06.19-.27.3-.46.24s-.3-.27-.24-.46l.69-2.11c.06-.19.27-.3.46-.24ZM184.22,77.86c.19.06.3.27.24.46l-.69,2.11c-.06.19-.27.3-.46.24s-.3-.27-.24-.46l.69-2.11c.06-.19.27-.3.46-.24ZM182.83,82.08c.19.06.3.27.24.46l-.69,2.11c-.06.19-.27.3-.46.24s-.3-.27-.24-.46l.69-2.11c.06-.19.27-.3.46-.24ZM181.45,86.31c.19.06.3.27.24.46l-.69,2.11c-.06.19-.27.3-.46.24s-.3-.27-.24-.46l.69-2.11c.06-.19.27-.3.46-.24ZM180.06,90.54c.19.06.3.27.24.46l-.69,2.11c-.06.19-.27.3-.46.24s-.3-.27-.24-.46l.69-2.11c.06-.19.27-.3.46-.24ZM178.67,94.76c.19.06.3.27.24.46l-.69,2.11c-.06.19-.27.3-.46.24s-.3-.27-.24-.46l.69-2.11c.06-.19.27-.3.46-.24ZM177.29,98.99c.19.06.3.27.24.46l-.69,2.11c-.06.19-.27.3-.46.24s-.3-.27-.24-.46l.69-2.11c.06-.19.27-.3.46-.24Z"/>
                <path class="cls-3" d="M188.03,66.24c.19.06.3.27.24.46l-.34,1.05c-.06.19-.27.3-.46.24s-.3-.27-.24-.46l.34-1.05c.06-.19.27-.3.46-.24Z"/>
              </g>
              <g>
                <path class="cls-3" d="M175.76,100.46c.19.06.3.27.24.46l-.34,1.05c-.06.19-.27.3-.46.24s-.3-.27-.24-.46l.34-1.05c.06-.19.27-.3.46-.24Z"/>
                <path class="cls-3" d="M186.4,68.03c.19.06.3.27.24.46l-.66,2.03c-.06.19-.27.3-.46.24s-.3-.27-.24-.46l.66-2.03c.06-.19.27-.3.46-.24ZM185.07,72.08c.19.06.3.27.24.46l-.66,2.03c-.06.19-.27.3-.46.24s-.3-.27-.24-.46l.66-2.03c.06-.19.27-.3.46-.24ZM183.74,76.14c.19.06.3.27.24.46l-.66,2.03c-.06.19-.27.3-.46.24s-.3-.27-.24-.46l.66-2.03c.06-.19.27-.3.46-.24ZM182.41,80.19c.19.06.3.27.24.46l-.66,2.03c-.06.19-.27.3-.46.24s-.3-.27-.24-.46l.66-2.03c.06-.19.27-.3.46-.24ZM181.08,84.25c.19.06.3.27.24.46l-.66,2.03c-.06.19-.27.3-.46.24s-.3-.27-.24-.46l.66-2.03c.06-.19.27-.3.46-.24ZM179.75,88.3c.19.06.3.27.24.46l-.66,2.03c-.06.19-.27.3-.46.24s-.3-.27-.24-.46l.66-2.03c.06-.19.27-.3.46-.24ZM178.42,92.36c.19.06.3.27.24.46l-.66,2.03c-.06.19-.27.3-.46.24s-.3-.27-.24-.46l.66-2.03c.06-.19.27-.3.46-.24ZM177.09,96.41c.19.06.3.27.24.46l-.66,2.03c-.06.19-.27.3-.46.24s-.3-.27-.24-.46l.66-2.03c.06-.19.27-.3.46-.24Z"/>
                <path class="cls-3" d="M187.41,64.95c.19.06.3.27.24.46l-.34,1.05c-.06.19-.27.3-.46.24s-.3-.27-.24-.46l.34-1.05c.06-.19.27-.3.46-.24Z"/>
              </g>
              <g>
                <path class="cls-3" d="M173.89,102.55c.19.06.3.27.24.46l-.34,1.05c-.06.19-.27.3-.46.24s-.3-.27-.24-.46l.34-1.05c.06-.19.27-.3.46-.24Z"/>
                <path class="cls-3" d="M184.98,68.75c.19.06.3.27.24.46l-.69,2.11c-.06.19-.27.3-.46.24s-.3-.27-.24-.46l.69-2.11c.06-.19.27-.3.46-.24ZM183.59,72.97c.19.06.3.27.24.46l-.69,2.11c-.06.19-.27.3-.46.24s-.3-.27-.24-.46l.69-2.11c.06-.19.27-.3.46-.24ZM182.21,77.2c.19.06.3.27.24.46l-.69,2.11c-.06.19-.27.3-.46.24s-.3-.27-.24-.46l.69-2.11c.06-.19.27-.3.46-.24ZM180.82,81.43c.19.06.3.27.24.46l-.69,2.11c-.06.19-.27.3-.46.24s-.3-.27-.24-.46l.69-2.11c.06-.19.27-.3.46-.24ZM179.44,85.65c.19.06.3.27.24.46l-.69,2.11c-.06.19-.27.3-.46.24s-.3-.27-.24-.46l.69-2.11c.06-.19.27-.3.46-.24ZM178.05,89.88c.19.06.3.27.24.46l-.69,2.11c-.06.19-.27.3-.46.24s-.3-.27-.24-.46l.69-2.11c.06-.19.27-.3.46-.24ZM176.66,94.1c.19.06.3.27.24.46l-.69,2.11c-.06.19-.27.3-.46.24s-.3-.27-.24-.46l.69-2.11c.06-.19.27-.3.46-.24ZM175.28,98.33c.19.06.3.27.24.46l-.69,2.11c-.06.19-.27.3-.46.24s-.3-.27-.24-.46l.69-2.11c.06-.19.27-.3.46-.24Z"/>
                <path class="cls-3" d="M186.02,65.59c.19.06.3.27.24.46l-.34,1.05c-.06.19-.27.3-.46.24s-.3-.27-.24-.46l.34-1.05c.06-.19.27-.3.46-.24Z"/>
              </g>
              <g>
                <path class="cls-3" d="M173.64,99.77c.19.06.3.27.24.46l-.34,1.05c-.06.19-.27.3-.46.24s-.3-.27-.24-.46l.34-1.05c.06-.19.27-.3.46-.24Z"/>
                <path class="cls-3" d="M184.27,67.33c.19.06.3.27.24.46l-.66,2.03c-.06.19-.27.3-.46.24s-.3-.27-.24-.46l.66-2.03c.06-.19.27-.3.46-.24ZM182.94,71.39c.19.06.3.27.24.46l-.66,2.03c-.06.19-.27.3-.46.24s-.3-.27-.24-.46l.66-2.03c.06-.19.27-.3.46-.24ZM181.61,75.44c.19.06.3.27.24.46l-.66,2.03c-.06.19-.27.3-.46.24s-.3-.27-.24-.46l.66-2.03c.06-.19.27-.3.46-.24ZM180.28,79.49c.19.06.3.27.24.46l-.66,2.03c-.06.19-.27.3-.46.24s-.3-.27-.24-.46l.66-2.03c.06-.19.27-.3.46-.24ZM178.95,83.55c.19.06.3.27.24.46l-.66,2.03c-.06.19-.27.3-.46.24s-.3-.27-.24-.46l.66-2.03c.06-.19.27-.3.46-.24ZM177.63,87.6c.19.06.3.27.24.46l-.66,2.03c-.06.19-.27.3-.46.24s-.3-.27-.24-.46l.66-2.03c.06-.19.27-.3.46-.24ZM176.3,91.66c.19.06.3.27.24.46l-.66,2.03c-.06.19-.27.3-.46.24s-.3-.27-.24-.46l.66-2.03c.06-.19.27-.3.46-.24ZM174.97,95.71c.19.06.3.27.24.46l-.66,2.03c-.06.19-.27.3-.46.24s-.3-.27-.24-.46l.66-2.03c.06-.19.27-.3.46-.24Z"/>
                <path class="cls-3" d="M185.28,64.25c.19.06.3.27.24.46l-.34,1.05c-.06.19-.27.3-.46.24s-.3-.27-.24-.46l.34-1.05c.06-.19.27-.3.46-.24Z"/>
              </g>
              <g>
                <path class="cls-3" d="M171.76,101.86c.19.06.3.27.24.46l-.34,1.05c-.06.19-.27.3-.46.24s-.3-.27-.24-.46l.34-1.05c.06-.19.27-.3.46-.24Z"/>
                <path class="cls-3" d="M182.85,68.05c.19.06.3.27.24.46l-.69,2.11c-.06.19-.27.3-.46.24s-.3-.27-.24-.46l.69-2.11c.06-.19.27-.3.46-.24ZM181.47,72.28c.19.06.3.27.24.46l-.69,2.11c-.06.19-.27.3-.46.24s-.3-.27-.24-.46l.69-2.11c.06-.19.27-.3.46-.24ZM180.08,76.5c.19.06.3.27.24.46l-.69,2.11c-.06.19-.27.3-.46.24s-.3-.27-.24-.46l.69-2.11c.06-.19.27-.3.46-.24ZM178.69,80.73c.19.06.3.27.24.46l-.69,2.11c-.06.19-.27.3-.46.24s-.3-.27-.24-.46l.69-2.11c.06-.19.27-.3.46-.24ZM177.31,84.95c.19.06.3.27.24.46l-.69,2.11c-.06.19-.27.3-.46.24s-.3-.27-.24-.46l.69-2.11c.06-.19.27-.3.46-.24ZM175.92,89.18c.19.06.3.27.24.46l-.69,2.11c-.06.19-.27.3-.46.24s-.3-.27-.24-.46l.69-2.11c.06-.19.27-.3.46-.24ZM174.54,93.4c.19.06.3.27.24.46l-.69,2.11c-.06.19-.27.3-.46.24s-.3-.27-.24-.46l.69-2.11c.06-.19.27-.3.46-.24ZM173.15,97.63c.19.06.3.27.24.46l-.69,2.11c-.06.19-.27.3-.46.24s-.3-.27-.24-.46l.69-2.11c.06-.19.27-.3.46-.24Z"/>
                <path class="cls-3" d="M183.89,64.89c.19.06.3.27.24.46l-.34,1.05c-.06.19-.27.3-.46.24s-.3-.27-.24-.46l.34-1.05c.06-.19.27-.3.46-.24Z"/>
              </g>
              <g>
                <path class="cls-3" d="M184.04,103.18c.19.06.3.27.24.46l-.34,1.05c-.06.19-.27.3-.46.24s-.3-.27-.24-.46l.34-1.05c.06-.19.27-.3.46-.24Z"/>
                <path class="cls-3" d="M194.68,70.74c.19.06.3.27.24.46l-.66,2.03c-.06.19-.27.3-.46.24s-.3-.27-.24-.46l.66-2.03c.06-.19.27-.3.46-.24ZM193.35,74.8c.19.06.3.27.24.46l-.66,2.03c-.06.19-.27.3-.46.24s-.3-.27-.24-.46l.66-2.03c.06-.19.27-.3.46-.24ZM192.02,78.85c.19.06.3.27.24.46l-.66,2.03c-.06.19-.27.3-.46.24s-.3-.27-.24-.46l.66-2.03c.06-.19.27-.3.46-.24ZM190.69,82.91c.19.06.3.27.24.46l-.66,2.03c-.06.19-.27.3-.46.24s-.3-.27-.24-.46l.66-2.03c.06-.19.27-.3.46-.24ZM189.36,86.96c.19.06.3.27.24.46l-.66,2.03c-.06.19-.27.3-.46.24s-.3-.27-.24-.46l.66-2.03c.06-.19.27-.3.46-.24ZM188.03,91.02c.19.06.3.27.24.46l-.66,2.03c-.06.19-.27.3-.46.24s-.3-.27-.24-.46l.66-2.03c.06-.19.27-.3.46-.24ZM186.7,95.07c.19.06.3.27.24.46l-.66,2.03c-.06.19-.27.3-.46.24s-.3-.27-.24-.46l.66-2.03c.06-.19.27-.3.46-.24ZM185.37,99.13c.19.06.3.27.24.46l-.66,2.03c-.06.19-.27.3-.46.24s-.3-.27-.24-.46l.66-2.03c.06-.19.27-.3.46-.24Z"/>
                <path class="cls-3" d="M195.69,67.67c.19.06.3.27.24.46l-.34,1.05c-.06.19-.27.3-.46.24s-.3-.27-.24-.46l.34-1.05c.06-.19.27-.3.46-.24Z"/>
              </g>
              <g>
                <path class="cls-3" d="M182.17,105.27c.19.06.3.27.24.46l-.34,1.05c-.06.19-.27.3-.46.24s-.3-.27-.24-.46l.34-1.05c.06-.19.27-.3.46-.24Z"/>
                <path class="cls-3" d="M193.26,71.46c.19.06.3.27.24.46l-.69,2.11c-.06.19-.27.3-.46.24s-.3-.27-.24-.46l.69-2.11c.06-.19.27-.3.46-.24ZM191.87,75.69c.19.06.3.27.24.46l-.69,2.11c-.06.19-.27.3-.46.24s-.3-.27-.24-.46l.69-2.11c.06-.19.27-.3.46-.24ZM190.49,79.91c.19.06.3.27.24.46l-.69,2.11c-.06.19-.27.3-.46.24s-.3-.27-.24-.46l.69-2.11c.06-.19.27-.3.46-.24ZM189.1,84.14c.19.06.3.27.24.46l-.69,2.11c-.06.19-.27.3-.46.24s-.3-.27-.24-.46l.69-2.11c.06-.19.27-.3.46-.24ZM187.71,88.37c.19.06.3.27.24.46l-.69,2.11c-.06.19-.27.3-.46.24s-.3-.27-.24-.46l.69-2.11c.06-.19.27-.3.46-.24ZM186.33,92.59c.19.06.3.27.24.46l-.69,2.11c-.06.19-.27.3-.46.24s-.3-.27-.24-.46l.69-2.11c.06-.19.27-.3.46-.24ZM184.94,96.82c.19.06.3.27.24.46l-.69,2.11c-.06.19-.27.3-.46.24s-.3-.27-.24-.46l.69-2.11c.06-.19.27-.3.46-.24ZM183.55,101.04c.19.06.3.27.24.46l-.69,2.11c-.06.19-.27.3-.46.24s-.3-.27-.24-.46l.69-2.11c.06-.19.27-.3.46-.24Z"/>
                <path class="cls-3" d="M194.3,68.3c.19.06.3.27.24.46l-.34,1.05c-.06.19-.27.3-.46.24s-.3-.27-.24-.46l.34-1.05c.06-.19.27-.3.46-.24Z"/>
              </g>
              <g>
                <path class="cls-3" d="M186.27,103.91c.19.06.3.27.24.46l-.34,1.05c-.06.19-.27.3-.46.24s-.3-.27-.24-.46l.34-1.05c.06-.19.27-.3.46-.24Z"/>
                <path class="cls-3" d="M196.91,71.48c.19.06.3.27.24.46l-.66,2.03c-.06.19-.27.3-.46.24s-.3-.27-.24-.46l.66-2.03c.06-.19.27-.3.46-.24ZM195.58,75.53c.19.06.3.27.24.46l-.66,2.03c-.06.19-.27.3-.46.24s-.3-.27-.24-.46l.66-2.03c.06-.19.27-.3.46-.24ZM194.25,79.58c.19.06.3.27.24.46l-.66,2.03c-.06.19-.27.3-.46.24s-.3-.27-.24-.46l.66-2.03c.06-.19.27-.3.46-.24ZM192.92,83.64c.19.06.3.27.24.46l-.66,2.03c-.06.19-.27.3-.46.24s-.3-.27-.24-.46l.66-2.03c.06-.19.27-.3.46-.24ZM191.59,87.69c.19.06.3.27.24.46l-.66,2.03c-.06.19-.27.3-.46.24s-.3-.27-.24-.46l.66-2.03c.06-.19.27-.3.46-.24ZM190.26,91.75c.19.06.3.27.24.46l-.66,2.03c-.06.19-.27.3-.46.24s-.3-.27-.24-.46l.66-2.03c.06-.19.27-.3.46-.24ZM188.93,95.8c.19.06.3.27.24.46l-.66,2.03c-.06.19-.27.3-.46.24s-.3-.27-.24-.46l.66-2.03c.06-.19.27-.3.46-.24ZM187.6,99.86c.19.06.3.27.24.46l-.66,2.03c-.06.19-.27.3-.46.24s-.3-.27-.24-.46l.66-2.03c.06-.19.27-.3.46-.24Z"/>
                <path class="cls-3" d="M197.92,68.4c.19.06.3.27.24.46l-.34,1.05c-.06.19-.27.3-.46.24s-.3-.27-.24-.46l.34-1.05c.06-.19.27-.3.46-.24Z"/>
              </g>
              <g>
                <path class="cls-3" d="M184.4,106c.19.06.3.27.24.46l-.34,1.05c-.06.19-.27.3-.46.24s-.3-.27-.24-.46l.34-1.05c.06-.19.27-.3.46-.24Z"/>
                <path class="cls-3" d="M195.49,72.19c.19.06.3.27.24.46l-.69,2.11c-.06.19-.27.3-.46.24s-.3-.27-.24-.46l.69-2.11c.06-.19.27-.3.46-.24ZM194.1,76.42c.19.06.3.27.24.46l-.69,2.11c-.06.19-.27.3-.46.24s-.3-.27-.24-.46l.69-2.11c.06-.19.27-.3.46-.24ZM192.72,80.65c.19.06.3.27.24.46l-.69,2.11c-.06.19-.27.3-.46.24s-.3-.27-.24-.46l.69-2.11c.06-.19.27-.3.46-.24ZM191.33,84.87c.19.06.3.27.24.46l-.69,2.11c-.06.19-.27.3-.46.24s-.3-.27-.24-.46l.69-2.11c.06-.19.27-.3.46-.24ZM189.94,89.1c.19.06.3.27.24.46l-.69,2.11c-.06.19-.27.3-.46.24s-.3-.27-.24-.46l.69-2.11c.06-.19.27-.3.46-.24ZM188.56,93.32c.19.06.3.27.24.46l-.69,2.11c-.06.19-.27.3-.46.24s-.3-.27-.24-.46l.69-2.11c.06-.19.27-.3.46-.24ZM187.17,97.55c.19.06.3.27.24.46l-.69,2.11c-.06.19-.27.3-.46.24s-.3-.27-.24-.46l.69-2.11c.06-.19.27-.3.46-.24ZM185.78,101.78c.19.06.3.27.24.46l-.69,2.11c-.06.19-.27.3-.46.24s-.3-.27-.24-.46l.69-2.11c.06-.19.27-.3.46-.24Z"/>
                <path class="cls-3" d="M196.53,69.03c.19.06.3.27.24.46l-.34,1.05c-.06.19-.27.3-.46.24s-.3-.27-.24-.46l.34-1.05c.06-.19.27-.3.46-.24Z"/>
              </g>
              <g>
                <path class="cls-3" d="M188.46,104.63c.19.06.3.27.24.46l-.34,1.05c-.06.19-.27.3-.46.24s-.3-.27-.24-.46l.34-1.05c.06-.19.27-.3.46-.24Z"/>
                <path class="cls-3" d="M199.1,72.19c.19.06.3.27.24.46l-.66,2.03c-.06.19-.27.3-.46.24s-.3-.27-.24-.46l.66-2.03c.06-.19.27-.3.46-.24ZM197.77,76.25c.19.06.3.27.24.46l-.66,2.03c-.06.19-.27.3-.46.24s-.3-.27-.24-.46l.66-2.03c.06-.19.27-.3.46-.24ZM196.44,80.3c.19.06.3.27.24.46l-.66,2.03c-.06.19-.27.3-.46.24s-.3-.27-.24-.46l.66-2.03c.06-.19.27-.3.46-.24ZM195.11,84.36c.19.06.3.27.24.46l-.66,2.03c-.06.19-.27.3-.46.24s-.3-.27-.24-.46l.66-2.03c.06-.19.27-.3.46-.24ZM193.78,88.41c.19.06.3.27.24.46l-.66,2.03c-.06.19-.27.3-.46.24s-.3-.27-.24-.46l.66-2.03c.06-.19.27-.3.46-.24ZM192.45,92.47c.19.06.3.27.24.46l-.66,2.03c-.06.19-.27.3-.46.24s-.3-.27-.24-.46l.66-2.03c.06-.19.27-.3.46-.24ZM191.12,96.52c.19.06.3.27.24.46l-.66,2.03c-.06.19-.27.3-.46.24s-.3-.27-.24-.46l.66-2.03c.06-.19.27-.3.46-.24ZM189.79,100.57c.19.06.3.27.24.46l-.66,2.03c-.06.19-.27.3-.46.24s-.3-.27-.24-.46l.66-2.03c.06-.19.27-.3.46-.24Z"/>
                <path class="cls-3" d="M200.1,69.12c.19.06.3.27.24.46l-.34,1.05c-.06.19-.27.3-.46.24s-.3-.27-.24-.46l.34-1.05c.06-.19.27-.3.46-.24Z"/>
              </g>
              <g>
                <path class="cls-3" d="M186.58,106.72c.19.06.3.27.24.46l-.34,1.05c-.06.19-.27.3-.46.24s-.3-.27-.24-.46l.34-1.05c.06-.19.27-.3.46-.24Z"/>
                <path class="cls-3" d="M197.67,72.91c.19.06.3.27.24.46l-.69,2.11c-.06.19-.27.3-.46.24s-.3-.27-.24-.46l.69-2.11c.06-.19.27-.3.46-.24ZM196.29,77.14c.19.06.3.27.24.46l-.69,2.11c-.06.19-.27.3-.46.24s-.3-.27-.24-.46l.69-2.11c.06-.19.27-.3.46-.24ZM194.9,81.36c.19.06.3.27.24.46l-.69,2.11c-.06.19-.27.3-.46.24s-.3-.27-.24-.46l.69-2.11c.06-.19.27-.3.46-.24ZM193.52,85.59c.19.06.3.27.24.46l-.69,2.11c-.06.19-.27.3-.46.24s-.3-.27-.24-.46l.69-2.11c.06-.19.27-.3.46-.24ZM192.13,89.81c.19.06.3.27.24.46l-.69,2.11c-.06.19-.27.3-.46.24s-.3-.27-.24-.46l.69-2.11c.06-.19.27-.3.46-.24ZM190.74,94.04c.19.06.3.27.24.46l-.69,2.11c-.06.19-.27.3-.46.24s-.3-.27-.24-.46l.69-2.11c.06-.19.27-.3.46-.24ZM189.36,98.27c.19.06.3.27.24.46l-.69,2.11c-.06.19-.27.3-.46.24s-.3-.27-.24-.46l.69-2.11c.06-.19.27-.3.46-.24ZM187.97,102.49c.19.06.3.27.24.46l-.69,2.11c-.06.19-.27.3-.46.24s-.3-.27-.24-.46l.69-2.11c.06-.19.27-.3.46-.24Z"/>
                <path class="cls-3" d="M198.71,69.75c.19.06.3.27.24.46l-.34,1.05c-.06.19-.27.3-.46.24s-.3-.27-.24-.46l.34-1.05c.06-.19.27-.3.46-.24Z"/>
              </g>
              <path class="cls-37" d="M173.48,94.95l8.31-25.32c.89-2.73,3.83-4.21,6.56-3.32l7,2.3c2.73.89,4.21,3.83,3.32,6.56l-8.24,25.13c.27-5.03-.08-10.92-2.48-14.62-3.24-4.99-10.24,4.89-14.58,12.1-.22-.9-.19-1.88.12-2.82Z"/>
            </g>
            <path class="cls-23" d="M188.59,58.64l10.5,3.44c4.3,1.41,6.73,5.83,5.41,9.84l-7.68,23.41c-.07.22-.31.34-.53.27s-.34-.31-.27-.53l7.68-23.41c1.17-3.58-1.02-7.52-4.88-8.79l-10.5-3.44c-3.87-1.27-7.97.61-9.14,4.19l-7.74,23.6c-.07.22-.31.34-.53.27s-.34-.31-.27-.53l7.74-23.6c1.32-4.01,5.89-6.13,10.19-4.72Z"/>
            <rect class="cls-41" x="175.89" y="81.06" width="21.65" height="3.19" transform="translate(338.37 219.39) rotate(-161.84)"/>
            <rect class="cls-40" x="178.34" y="77.59" width="19.16" height="3.68" transform="translate(341.72 213.48) rotate(-161.84)"/>
            <path class="cls-23" d="M196.83,82.99c-2.12-.79-11.3-4.34-13.32-6.94l-4.12-1.35-1.15,3.49,18.2,5.97.38-1.17Z"/>
            <rect class="cls-14" x="175.07" y="81.07" width="23.55" height="2.22" transform="translate(338.77 218.51) rotate(-161.84)"/>
            <rect class="cls-23" x="198.48" y="82.75" width="2.22" height="7.12" transform="translate(362.33 230.54) rotate(-161.84)"/>
            <rect class="cls-23" x="172.88" y="74.36" width="2.22" height="7.12" transform="translate(315.03 206.18) rotate(-161.84)"/>
            <rect class="cls-14" x="189.73" y="58.63" width="8.83" height="4.19" rx="2.09" ry="2.09" transform="translate(359.69 178.94) rotate(-161.84)"/>
          </g>
          <g class="cls-47">
            <g>
              <path class="cls-36" d="M102.28,74.57c2.05-.69,3.31-2.32,4.09-4.04,1.1-2.42,1.41-5.22.4-7.9-1.01-2.68-4.39-5.89-9.41-6.37-1.3-.12-3.04,1.28-3.46,2.32-.78,1.94.76,4.85.42,6.91-.39,2.39-2.2,4.48-.71,6.83,1.25,1.96,6.53,2.95,8.66,2.24Z"/>
              <path class="cls-1" d="M97.14,73.76c1.29-.14,2.44-.7,3.52-1.28,1.7-.91,2.51-2.64,2.88-4.32.54-2.5.73-5.28-.68-7.58-1.93-3.13-5.87-3.94-7.3-4.16-.98-.15-1.99-.15-2.96,0-.65.1-1.3.27-1.8.62-.67.47-.99,1.2-1.24,1.91-.84,2.33-1.27,4.79-1.04,7.24.19,2.06.83,4.28,2.14,6.08,1.31,1.78,4.4,1.72,6.48,1.5Z"/>
              <path class="cls-28" d="M90.69,72.22c-.04-.06-.09-.12-.13-.18.78-.66,1.67-1.23,2.45-1.9,2.86-2.44,4.06-5.9,5.16-9.22.06,1.55.38,3.09.96,4.57.38.97,1.03,2.05,2.22,2.29,1.14.23,1.72-.56,2.46-.93-.07.43-.15.85-.24,1.27-.37,1.68-1.18,3.41-2.88,4.32-1.08.58-2.23,1.14-3.52,1.28-2.08.22-5.17.28-6.48-1.5Z"/>
              <path class="cls-39" d="M93.33,51.88c.55-.25,1.24-.09,1.84.09.11.03.23.07.31.15.07.08.08.17.09.26.1.57.5,1.09.91,1.56,1.6,1.82,3.66,3.4,4.73,5.46.72,1.4.94,2.94.89,4.45-.09,3.17-1.34,6.34-3.85,8.64-.93.85-2.31,1.37-3.77,1.37-1.46,0-3.4-1.07-4.35-1.98-1.17-1.11-1.88-3.27-1.96-4.74-.48-8.97,3.97-10.75,4.35-14.03.07-.61.16-.95.8-1.25ZM93.12,54.09c-.2.62-.66,1.15-.75,1.49-.02.07-.02.14.03.2.09.08.24.04.36,0,.4-.14.83-.24,1.26-.28.98-.1,1.98.06,2.95.24.34-.14-.22-.39-.41-.55-.38-.32-.71-.67-1-1.04-.28-.36-.44-.79-.73-1.13-.2-.24-.53-.45-.88-.34-.51.16-.66.88-.84,1.42Z"/>
              <path class="cls-8" d="M101.29,61.77c.38,2.76-.25,5.59-1.79,8-.7,1.09-1.6,2.11-2.86,2.76-1.25.64-2.91.84-4.26.28-1.5-.62-2.33-2.01-2.77-3.35-.82-2.5-.67-5.13-.17-7.66.32-1.62.82-3.29,2.16-4.46,1.55-1.36,3.84-1.37,5.87-.73,2.43.77,3.54,3.18,3.81,5.16Z"/>
              <path class="cls-1" d="M97.06,65.5c.5-1.07.75-2.24.52-3.39-.17-.84-.64-1.68-1.48-2.17-.84-.49-2.1-.5-2.76.12,1.34.17,2.42,1.14,2.84,2.23.42,1.08.28,2.25-.04,3.34-.38,1.27-1.09,2.19-1.93,3.25,1.35-.72,2.29-2.17,2.86-3.38Z"/>
              <path class="cls-8" d="M91.61,51.48c-.55-1.17-.6-2.47-.5-3.73.35-4.67,2.47-9.09,4.74-13.35,1.56-2.92,3.22-5.84,5.7-8.26,4.44-4.33,11.41-6.66,18.13-6.06,5.53.49,10.14.65,20.31,7.82,4.34,3.06,8.09,8.94,9.16,13.65,1.08,4.71.95,9.55.83,14.35-.03,1.31-.12,2.75-1.14,3.73-1.69,1.62-5.06.98-6.67-.71-1.61-1.69-.89-3.32-1.15-5.48-.53-4.32-.78-9.31-1.31-13.63-.49-4.02-2.46-8.33-5.69-11.3-1.54-1.41-3.55-2.39-5.58-3.25-2.55-1.08-5.27-2.05-8.12-2.05-3.48,0-6.79,1.45-9.34,3.45-2.55,2.01-4.44,4.55-6.18,7.11-2.9,4.27-5.88,9.24-5.82,14.3.02,1.89,1,3.59-.91,5.01-2.3,1.72-5.38.66-6.46-1.61Z"/>
              <path class="cls-28" d="M118.59,23.33c1.76-.55,6.33-.91,8.2-.7,2.34.26,10.31,1.39,13.3,5.77,2.8,4.1,7.88,14.85,8.31,19.57.38,4.12.6,8.43-1.35,12.21-.07.13-.14.26-.22.38-1.64.2-3.54-.47-4.63-1.61-1.61-1.69-.89-3.32-1.15-5.48-.53-4.32-.78-9.31-1.31-13.63-.49-4.02-2.46-8.33-5.69-11.3-1.54-1.41-3.55-2.39-5.58-3.25-2.55-1.08-5.27-2.05-8.12-2.05-.58,0-1.2.01-1.77.09Z"/>
              <path class="cls-28" d="M108.71,21.64c-5.25,2.68-9.74,9.55-12.53,15.25-1.88,3.85-3.32,8.27-1.37,12.1.57,1.11,1.74,2.26,3.14,2.04.57-.09,1-.36,1.32-.75.08.99-.06,1.9-1.16,2.73-2.3,1.72-5.38.66-6.46-1.61-.55-1.17-.6-2.47-.5-3.73.35-4.67,2.47-9.09,4.74-13.35,1.56-2.92,3.22-5.84,5.7-8.26,1.88-1.84,4.53-3.39,7.12-4.43Z"/>
              <path class="cls-20" d="M113.3,22.87c-2.56.52-4.46,2.33-6,4.15-1.53,1.8-2.9,3.69-4.09,5.67-.46-.04-.78-.44-.81-.84s.16-.77.37-1.12c1.48-2.54,3.78-4.65,6.04-6.73.88-.81,1.77-1.62,2.87-2.2.72-.38,3.44-1.37,4.16-.49.84,1.02-1.82,1.42-2.54,1.56Z"/>
            </g>
          </g>
        </g>
      </g>
    </g>
  </g>
</svg>